<svg width="24" height="24" viewBox="0 0 24 24" fill="none" xmlns="http://www.w3.org/2000/svg">
<path fill-rule="evenodd" clip-rule="evenodd" d="M9.79999 9.96387C11.5949 9.96387 13.05 8.50879 13.05 6.71387C13.05 4.91894 11.5949 3.46387 9.79999 3.46387C8.00506 3.46387 6.54999 4.91894 6.54999 6.71387C6.54999 8.50879 8.00506 9.96387 9.79999 9.96387ZM9.79999 11.4639C12.4233 11.4639 14.55 9.33722 14.55 6.71387C14.55 4.09051 12.4233 1.96387 9.79999 1.96387C7.17664 1.96387 5.04999 4.09051 5.04999 6.71387C5.04999 9.33722 7.17664 11.4639 9.79999 11.4639ZM6.75 14.7139C4.95507 14.7139 3.5 16.1689 3.5 17.9639V21.9639H2V17.9639C2 15.3405 4.12665 13.2139 6.75 13.2139H12.75C15.3734 13.2139 17.5 15.3405 17.5 17.9639V21.9639H16V17.9639C16 16.1689 14.5449 14.7139 12.75 14.7139H6.75ZM18.3292 1.96387V4.7168H15.576V5.63451H18.3292V8.38782H19.2469V5.63451H22V4.7168H19.2469V1.96387H18.3292Z" fill="#1D2327"/>
</svg>
