<svg width="24" height="24" viewBox="0 0 24 24" fill="none" xmlns="http://www.w3.org/2000/svg">
<path d="M14.4381 3.8401L14.6286 3.5201L14.8571 3.2001L15.3143 2.4801C15.3524 2.4001 15.3524 2.2801 15.2762 2.2001C15.2 2.1601 15.0857 2.1601 15.0095 2.2401L14.5143 3.0001L14.2857 3.3601L14.0952 3.6801C13.4476 3.4001 12.7238 3.2801 11.9619 3.2801C11.2 3.2801 10.4762 3.4401 9.82857 3.6801L9.6381 3.3601L9.44762 3.0401L8.95238 2.2801C8.91429 2.2001 8.8 2.1601 8.68572 2.2401C8.57143 2.2801 8.53333 2.4001 8.60952 2.4801L9.06667 3.2001L9.25714 3.5201L9.44762 3.8401C7.92381 4.6001 6.89524 6.0001 6.89524 7.6401H17.0286C16.9905 6.0001 15.9619 4.5601 14.4381 3.8401ZM9.79048 6.1201C9.48572 6.1201 9.25714 5.8801 9.25714 5.5601C9.25714 5.2401 9.48572 5.0001 9.79048 5.0001C10.0952 5.0001 10.3238 5.2401 10.3238 5.5601C10.3238 5.8801 10.0952 6.1201 9.79048 6.1201ZM14.1333 6.1201C13.8286 6.1201 13.6 5.8801 13.6 5.5601C13.6 5.2401 13.8286 5.0001 14.1333 5.0001C14.4 4.9601 14.6667 5.2001 14.6667 5.5201C14.6667 5.8401 14.4 6.1201 14.1333 6.1201ZM6.97143 8.3601H6.89524V9.3201V10.0801V16.7201C6.89524 17.4001 7.39048 17.9201 8.0381 17.9201H8.87619C8.8381 18.0401 8.8381 18.1201 8.8381 18.2401V18.3201V18.6801V20.6401C8.8381 21.2801 9.33333 21.7601 9.90476 21.7601C10.4762 21.7601 10.9714 21.2401 10.9714 20.6401V18.6801V18.3201V18.2401C10.9714 18.1201 10.9714 18.0401 10.9333 17.9201H12.9524C12.9143 18.0401 12.9143 18.1201 12.9143 18.2401V18.3201V18.6801V20.6401C12.9143 21.2801 13.4095 21.7601 13.981 21.7601C14.5905 21.7601 15.0476 21.2401 15.0476 20.6401V18.6801V18.3201V18.2401C15.0476 18.1201 15.0476 18.0401 15.0095 17.9201H15.8476C16.4952 17.9201 16.9905 17.4001 16.9905 16.7201V10.0801V9.3201V8.3601H16.9143H6.97143ZM5.06667 8.3601C4.45714 8.3601 4 8.8801 4 9.4801V14.4001C4 15.0401 4.49524 15.5201 5.06667 15.5201C5.67619 15.5201 6.13333 15.0001 6.13333 14.4001V9.5201C6.17143 8.8801 5.67619 8.3601 5.06667 8.3601ZM18.8191 8.3601C18.2095 8.3601 17.7524 8.8801 17.7524 9.4801V14.4001C17.7524 15.0401 18.2476 15.5201 18.8191 15.5201C19.4286 15.5201 19.8857 15.0001 19.8857 14.4001V9.5201C19.8857 8.8801 19.4286 8.3601 18.8191 8.3601Z" fill="#1D2327"/>
</svg>
