<svg width="24" height="24" viewBox="0 0 24 24" fill="none" xmlns="http://www.w3.org/2000/svg">
<path fill-rule="evenodd" clip-rule="evenodd" d="M13.5385 6H4.30769C3.03319 6 2 7.03319 2 8.30769V15.6923C2 16.9668 3.03319 18 4.30769 18H13.5385C14.813 18 15.8462 16.9668 15.8462 15.6923V8.30769C15.8462 7.03319 14.813 6 13.5385 6ZM3.38462 8.30769C3.38462 7.79789 3.79789 7.38462 4.30769 7.38462H13.5385C14.0483 7.38462 14.4615 7.79789 14.4615 8.30769V15.6923C14.4615 16.2021 14.0483 16.6154 13.5385 16.6154H4.30769C3.79789 16.6154 3.38462 16.2021 3.38462 15.6923V8.30769ZM18.0308 10.7078L20.6154 8.76934V15.2309L18.0308 13.2924C17.7249 13.063 17.2909 13.125 17.0615 13.4309C16.8321 13.7368 16.8941 14.1707 17.2 14.4001L20.1538 16.6155C20.9145 17.186 22 16.6432 22 15.6924V8.3078C22 7.35697 20.9145 6.81423 20.1538 7.38472L17.2 9.6001C16.8941 9.82951 16.8321 10.2635 17.0615 10.5693C17.2909 10.8752 17.7249 10.9372 18.0308 10.7078Z" fill="#1D2327"/>
</svg>
