<svg width="24" height="24" viewBox="0 0 24 24" fill="none" xmlns="http://www.w3.org/2000/svg">
<path fill-rule="evenodd" clip-rule="evenodd" d="M8.5 1.96387H7V3.46387H5C3.89543 3.46387 3 4.3593 3 5.46387V19.4639C3 20.5684 3.89543 21.4639 5 21.4639H19C20.1046 21.4639 21 20.5684 21 19.4639V5.46387C21 4.3593 20.1046 3.46387 19 3.46387H17V1.96387H15.5V3.46387H8.5V1.96387ZM15.5 5.96387V4.96387H8.5V5.96387H7V4.96387H5.5C4.94772 4.96387 4.5 5.41158 4.5 5.96387V8.21387H19.5V5.96387C19.5 5.41158 19.0523 4.96387 18.5 4.96387H17V5.96387H15.5ZM19.5 9.71387H4.5V18.9639C4.5 19.5162 4.94772 19.9639 5.5 19.9639H18.5C19.0523 19.9639 19.5 19.5162 19.5 18.9639V9.71387Z" fill="#1D2327"/>
</svg>
