<svg width="24" height="24" viewBox="0 0 24 24" fill="none" xmlns="http://www.w3.org/2000/svg">
<path fill-rule="evenodd" clip-rule="evenodd" d="M19.0663 9.57237L19.0073 10.2131L19.4309 10.6975L21.0073 12.5L19.4309 14.3025L19.0073 14.7869L19.0663 15.4276L19.2857 17.8085L16.9577 18.3373L16.3284 18.4802L15.9995 19.0354L14.7811 21.0918L12.5919 20.1517L11.998 19.8967L11.4047 20.1532L9.21719 21.099L8.0005 19.0454L7.67156 18.4902L7.04226 18.3473L4.71398 17.8184L4.93371 15.4273L4.99257 14.7867L4.56912 14.3025L2.99117 12.4982L4.57086 10.6855L4.99242 10.2017L4.93371 9.56274L4.7143 7.17508L7.0384 6.65361L7.67036 6.51181L8.0005 5.95459L9.21887 3.8982L11.4081 4.8383L12 5.09245L12.5919 4.8383L14.7795 3.89892L15.9985 5.96282L16.3273 6.51952L16.9577 6.66274L19.2857 7.19153L19.0663 9.57237ZM20.56 15.29L23 12.5L20.56 9.71L20.9 6.02L17.29 5.2L15.4 2L12 3.46L8.6 2L6.71 5.19L3.1 6L3.44 9.7L1 12.5L3.44 15.29L3.1 18.99L6.71 19.81L8.6 23L12 21.53L15.4 22.99L17.29 19.8L20.9 18.98L20.56 15.29ZM10.4142 17L7 13.5481L8.32974 12.2072L10.4142 14.3182L15.6703 9L17 10.3409L10.4142 17Z" fill="#1D2327"/>
</svg>
