<svg width="24" height="24" viewBox="0 0 24 24" fill="none" xmlns="http://www.w3.org/2000/svg">
<path fill-rule="evenodd" clip-rule="evenodd" d="M2.25 12C2.25 6.61579 6.61579 2.25 12 2.25C17.2986 2.25 21.75 6.08505 21.75 11C21.75 14.1742 19.1742 16.75 16 16.75H14.23C13.8142 16.75 13.48 17.0842 13.48 17.5C13.48 17.6814 13.5523 17.8578 13.6712 17.9925C14.0223 18.3877 14.25 18.9113 14.25 19.5C14.25 20.7442 13.2442 21.75 12 21.75C6.61579 21.75 2.25 17.3842 2.25 12ZM12 3.75C7.44421 3.75 3.75 7.44421 3.75 12C3.75 16.5558 7.44421 20.25 12 20.25C12.4158 20.25 12.75 19.9158 12.75 19.5C12.75 19.3091 12.678 19.1329 12.5494 18.9883L12.5483 18.9869C12.2074 18.6017 11.98 18.0783 11.98 17.5C11.98 16.2558 12.9858 15.25 14.23 15.25H16C18.3458 15.25 20.25 13.3458 20.25 11C20.25 7.07494 16.6414 3.75 12 3.75ZM19 10.5C19 11.3284 18.3284 12 17.5 12C16.6716 12 16 11.3284 16 10.5C16 9.67157 16.6716 9 17.5 9C18.3284 9 19 9.67157 19 10.5ZM14.5 8C15.3284 8 16 7.32843 16 6.5C16 5.67157 15.3284 5 14.5 5C13.6716 5 13 5.67157 13 6.5C13 7.32843 13.6716 8 14.5 8ZM11 6.5C11 7.32843 10.3284 8 9.5 8C8.67157 8 8 7.32843 8 6.5C8 5.67157 8.67157 5 9.5 5C10.3284 5 11 5.67157 11 6.5ZM6.5 12C7.32843 12 8 11.3284 8 10.5C8 9.67157 7.32843 9 6.5 9C5.67157 9 5 9.67157 5 10.5C5 11.3284 5.67157 12 6.5 12Z" fill="#1D2327"/>
</svg>
