<svg width="24" height="24" viewBox="0 0 24 24" fill="none" xmlns="http://www.w3.org/2000/svg">
<path fill-rule="evenodd" clip-rule="evenodd" d="M8.695 3.25C9.32449 2.07002 10.5596 1.25 12 1.25C13.4404 1.25 14.6755 2.07002 15.305 3.25H19C20.5142 3.25 21.75 4.48579 21.75 6V20C21.75 21.5142 20.5142 22.75 19 22.75H5C3.48579 22.75 2.25 21.5142 2.25 20V6C2.25 4.48579 3.48579 3.25 5 3.25H8.695ZM12 2.75C11.0342 2.75 10.2041 3.3745 9.8852 4.25533L9.7061 4.75H9.18H5C4.31421 4.75 3.75 5.31421 3.75 6V20C3.75 20.6858 4.31421 21.25 5 21.25H19C19.6858 21.25 20.25 20.6858 20.25 20V6C20.25 5.31421 19.6858 4.75 19 4.75H14.82H14.2939L14.1148 4.25533C13.7959 3.3745 12.9658 2.75 12 2.75ZM17 10V8H7V10H17ZM17 12V14H7V12H17ZM7 18H14V16H7V18ZM12 4C12.55 4 13 4.45 13 5C13 5.55 12.55 6 12 6C11.45 6 11 5.55 11 5C11 4.45 11.45 4 12 4Z" fill="#1D2327"/>
</svg>
