<svg width="24" height="24" viewBox="0 0 24 24" fill="none" xmlns="http://www.w3.org/2000/svg">
<path fill-rule="evenodd" clip-rule="evenodd" d="M4.33333 3.33333V17.6667H5V19H3.88889C3.39797 19 3 18.602 3 18.1111V2.88889C3 2.39797 3.39797 2 3.88889 2H17.1111C17.602 2 18 2.39797 18 2.88889V4H16.6667V3.33333H4.33333ZM6.88889 5C6.39797 5 6 5.39797 6 5.88889V21.1111C6 21.602 6.39797 22 6.88889 22H20.1111C20.602 22 21 21.602 21 21.1111V5.88889C21 5.39797 20.602 5 20.1111 5H6.88889ZM7.33333 6.33333V20.6667H19.6667V6.33333H7.33333ZM14 13H17V14H14V17H13V14H10V13H13V10H14V13Z" fill="#1D2327"/>
</svg>
