<svg width="24" height="24" viewBox="0 0 24 24" fill="none" xmlns="http://www.w3.org/2000/svg">
<path fill-rule="evenodd" clip-rule="evenodd" d="M7 1.96387H8.5V3.46387H15.5V1.96387H17V3.46387H19C20.1046 3.46387 21 4.3593 21 5.46387V19.4639C21 20.5684 20.1046 21.4639 19 21.4639H5C3.89543 21.4639 3 20.5684 3 19.4639V5.46387C3 4.3593 3.89543 3.46387 5 3.46387H7V1.96387ZM8.5 4.96387H15.5V5.96387H17V4.96387H18.5C19.0523 4.96387 19.5 5.41158 19.5 5.96387V8.21387H4.5V5.96387C4.5 5.41158 4.94772 4.96387 5.5 4.96387H7V5.96387H8.5V4.96387ZM4.5 9.71387H19.5V18.9639C19.5 19.5162 19.0523 19.9639 18.5 19.9639H5.5C4.94772 19.9639 4.5 19.5162 4.5 18.9639V9.71387ZM10.9286 16.6648L15.3504 12.3205L14.6496 11.6072L10.9286 15.2629L9.35042 13.7124L8.6496 14.4258L10.9286 16.6648Z" fill="#1D2327"/>
</svg>
