<svg width="24" height="24" viewBox="0 0 24 24" fill="none" xmlns="http://www.w3.org/2000/svg">
<path fill-rule="evenodd" clip-rule="evenodd" d="M6.5 7.51114C6.5 10.0001 8.51472 12.0179 11 12.0179C13.4853 12.0179 15.5 10.0001 15.5 7.51114C15.5 5.02213 13.4853 3.00439 11 3.00439C8.51472 3.00439 6.5 5.02213 6.5 7.51114ZM14 7.51114C14 9.17047 12.6569 10.5156 11 10.5156C9.34315 10.5156 8 9.17047 8 7.51114C8 5.8518 9.34315 4.50664 11 4.50664C12.6569 4.50664 14 5.8518 14 7.51114ZM4.5 18.5276H11V20.0299H3V18.0269C3 15.2613 5.23858 13.0194 8 13.0194H14C16.7614 13.0194 19 15.2613 19 18.0269V20.0299H17.5V18.0269C17.5 16.091 15.933 14.5216 14 14.5216H8C6.067 14.5216 4.5 16.091 4.5 18.0269V18.5276ZM17 7.51114C17 9.65593 15.504 11.4508 13.5 11.9062C13.8216 11.9793 14.1563 12.0179 14.5 12.0179C16.9853 12.0179 19 10.0001 19 7.51114C19 5.02213 16.9853 3.00439 14.5 3.00439C14.1563 3.00439 13.8216 3.04298 13.5 3.11607C15.504 3.57148 17 5.36634 17 7.51114ZM23 20.0299H21V18.0194C21 15.2579 18.7614 13.0194 16 13.0194H18C20.7614 13.0194 23 15.2579 23 18.0194V20.0299ZM4 10.0149H6V11.0164H4V13.0192H3L3 11.0164H1V10.0149H3L3 8.01172H4V10.0149Z" fill="#1D2327"/>
</svg>
