<svg width="24" height="24" viewBox="0 0 24 24" fill="none" xmlns="http://www.w3.org/2000/svg">
<path fill-rule="evenodd" clip-rule="evenodd" d="M8.45001 6.71387C8.45001 8.50879 9.90509 9.96387 11.7 9.96387C13.4949 9.96387 14.95 8.50879 14.95 6.71387C14.95 4.91894 13.4949 3.46387 11.7 3.46387C9.90509 3.46387 8.45001 4.91894 8.45001 6.71387ZM6.95001 6.71387C6.95001 9.33722 9.07666 11.4639 11.7 11.4639C14.3234 11.4639 16.45 9.33722 16.45 6.71387C16.45 4.09051 14.3234 1.96387 11.7 1.96387C9.07666 1.96387 6.95001 4.09051 6.95001 6.71387ZM18 17.9639C18 16.1689 16.5449 14.7139 14.75 14.7139H8.75C6.95507 14.7139 5.5 16.1689 5.5 17.9639V21.9639H4V17.9639C4 15.3405 6.12665 13.2139 8.75 13.2139H14.75C17.3734 13.2139 19.5 15.3405 19.5 17.9639V21.9639H18V17.9639Z" fill="#1D2327"/>
</svg>
