<svg width="24" height="24" viewBox="0 0 24 24" fill="none" xmlns="http://www.w3.org/2000/svg">
<path fill-rule="evenodd" clip-rule="evenodd" d="M5.67084 1.96387L5.67084 4.7168H8.42396V5.63451H5.67084L5.67084 8.38782H4.75313V5.63451H2V4.7168H4.75313V1.96387H5.67084ZM14.2 9.96387C12.4051 9.96387 10.95 8.50879 10.95 6.71387C10.95 4.91894 12.4051 3.46387 14.2 3.46387C15.9949 3.46387 17.45 4.91894 17.45 6.71387C17.45 8.50879 15.9949 9.96387 14.2 9.96387ZM14.2 11.4639C11.5767 11.4639 9.45001 9.33722 9.45001 6.71387C9.45001 4.09051 11.5767 1.96387 14.2 1.96387C16.8234 1.96387 18.95 4.09051 18.95 6.71387C18.95 9.33722 16.8234 11.4639 14.2 11.4639ZM17.25 14.7139C19.0449 14.7139 20.5 16.1689 20.5 17.9639V21.9639H22V17.9639C22 15.3405 19.8734 13.2139 17.25 13.2139H11.25C8.62665 13.2139 6.5 15.3405 6.5 17.9639V21.9639H8V17.9639C8 16.1689 9.45507 14.7139 11.25 14.7139H17.25Z" fill="#1D2327"/>
</svg>
