<svg width="24" height="24" viewBox="0 0 24 24" fill="none" xmlns="http://www.w3.org/2000/svg">
<path d="M11.55 10.875H10.875V9.525H12.9V15.375H14.475V16.725H9.975V15.375H11.55V10.875Z" fill="#1D2327"/>
<path d="M12.9 7.5C12.9 7.99706 12.4971 8.4 12 8.4C11.5029 8.4 11.1 7.99706 11.1 7.5C11.1 7.00294 11.5029 6.6 12 6.6C12.4971 6.6 12.9 7.00294 12.9 7.5Z" fill="#1D2327"/>
<path fill-rule="evenodd" clip-rule="evenodd" d="M21 12C21 16.9706 16.9706 21 12 21C7.02944 21 3 16.9706 3 12C3 7.02944 7.02944 3 12 3C16.9706 3 21 7.02944 21 12ZM12 19.65C16.225 19.65 19.65 16.225 19.65 12C19.65 7.77502 16.225 4.35 12 4.35C7.77502 4.35 4.35 7.77502 4.35 12C4.35 16.225 7.77502 19.65 12 19.65Z" fill="#1D2327"/>
</svg>
