<svg width="24" height="24" viewBox="0 0 24 24" fill="none" xmlns="http://www.w3.org/2000/svg">
<path d="M17.879 7.20022C17.879 7.79651 17.3957 8.27987 16.7994 8.27987C16.2031 8.27987 15.7197 7.79651 15.7197 7.20022C15.7197 6.60394 16.2031 6.12054 16.7994 6.12054C17.3957 6.12054 17.879 6.60394 17.879 7.20022Z" fill="#1D2327"/>
<path fill-rule="evenodd" clip-rule="evenodd" d="M11.9971 7.38275C9.44545 7.38275 7.37695 9.45125 7.37695 12.0029C7.37695 14.5546 9.44545 16.6231 11.9971 16.6231C14.5488 16.6231 16.6173 14.5546 16.6173 12.0029C16.6173 9.45125 14.5488 7.38275 11.9971 7.38275ZM11.9971 15.002C10.3408 15.002 8.99806 13.6593 8.99806 12.0029C8.99806 10.3466 10.3408 9.00386 11.9971 9.00386C13.6535 9.00386 14.9962 10.3466 14.9962 12.0029C14.9962 13.6593 13.6535 15.002 11.9971 15.002Z" fill="#1D2327"/>
<path fill-rule="evenodd" clip-rule="evenodd" d="M8.28764 3.05988C9.24729 3.01609 9.55368 3.00574 11.9972 3.00574C14.4406 3.00574 14.747 3.01609 15.7067 3.05988C16.6643 3.10356 17.3184 3.25567 17.8906 3.47809C18.4823 3.70799 18.984 4.01563 19.4842 4.51581C19.9844 5.01602 20.2921 5.51777 20.522 6.10942C20.7444 6.6817 20.8965 7.33574 20.9402 8.29338C20.984 9.25302 20.9943 9.55942 20.9943 12.0029C20.9943 14.4464 20.984 14.7528 20.9402 15.7124C20.8965 16.6701 20.7444 17.3241 20.522 17.8964C20.2921 18.488 19.9844 18.9898 19.4842 19.49C18.984 19.9902 18.4823 20.2978 17.8906 20.5277C17.3184 20.7501 16.6643 20.9022 15.7067 20.9459C14.747 20.9897 14.4406 21.0001 11.9972 21.0001C9.55368 21.0001 9.24729 20.9897 8.28764 20.9459C7.33 20.9022 6.67596 20.7501 6.10368 20.5277C5.51204 20.2978 5.01029 19.9902 4.51007 19.49C4.00989 18.9898 3.70225 18.488 3.47236 17.8964C3.24993 17.3241 3.09782 16.6701 3.05414 15.7124C3.01036 14.7528 3 14.4464 3 12.0029C3 9.55942 3.01036 9.25302 3.05414 8.29338C3.09782 7.33574 3.24993 6.6817 3.47236 6.10942C3.70225 5.51777 4.00989 5.01602 4.51007 4.51581C5.01029 4.01563 5.51204 3.70799 6.10368 3.47809C6.67596 3.25567 7.33 3.10356 8.28764 3.05988ZM15.6328 4.67931C14.6841 4.63602 14.3995 4.62684 11.9972 4.62684C9.59482 4.62684 9.31025 4.63602 8.36154 4.67931C7.48432 4.71931 7.00793 4.86588 6.69089 4.98909C6.27093 5.15231 5.97121 5.34727 5.65639 5.66213C5.34154 5.97695 5.14657 6.27667 4.98336 6.69663C4.86014 7.01367 4.71357 7.49006 4.67357 8.36727C4.63029 9.31599 4.62111 9.60056 4.62111 12.0029C4.62111 14.4052 4.63029 14.6898 4.67357 15.6385C4.71357 16.5157 4.86014 16.9921 4.98336 17.3092C5.14657 17.7291 5.34157 18.0288 5.65639 18.3437C5.97121 18.6585 6.27093 18.8535 6.69089 19.0167C7.00793 19.1399 7.48432 19.2865 8.36154 19.3265C9.31014 19.3698 9.59464 19.379 11.9972 19.379C14.3997 19.379 14.6842 19.3698 15.6328 19.3265C16.51 19.2865 16.9864 19.1399 17.3034 19.0167C17.7234 18.8535 18.0231 18.6585 18.3379 18.3437C18.6528 18.0288 18.8477 17.7291 19.011 17.3092C19.1342 16.9921 19.2808 16.5157 19.3208 15.6385C19.364 14.6898 19.3732 14.4052 19.3732 12.0029C19.3732 9.60056 19.364 9.31599 19.3208 8.36727C19.2808 7.49006 19.1342 7.01367 19.011 6.69663C18.8477 6.27667 18.6528 5.97695 18.3379 5.66213C18.0231 5.34727 17.7234 5.15231 17.3034 4.98909C16.9864 4.86588 16.51 4.71931 15.6328 4.67931Z" fill="#1D2327"/>
</svg>
