<svg width="24" height="24" viewBox="0 0 24 24" fill="none" xmlns="http://www.w3.org/2000/svg">
<path d="M15.4 2H8.88125C8.88125 2 7 2 7 3.88125V20.725C7 22.6062 8.88125 22.6062 8.88125 22.6062H15.4C15.4 22.6062 17.2813 22.6062 17.2813 20.725V3.88125C17.2813 2 15.4 2 15.4 2ZM10.7188 3.1375C10.7188 3.00625 10.7625 2.91875 10.85 2.91875H13.3875C13.475 2.91875 13.5188 3.00625 13.5188 3.1375V3.18125C13.5188 3.3125 13.475 3.4 13.3875 3.4H10.85C10.7625 3.4 10.7188 3.3125 10.7188 3.18125V3.1375ZM12.1188 21.775C11.5938 21.775 11.2 21.3375 11.2 20.8562C11.2 20.3312 11.6375 19.9375 12.1188 19.9375C12.6 19.9375 13.0375 20.375 13.0375 20.8562C13.0813 21.3812 12.6438 21.775 12.1188 21.775ZM16.3188 19.2812H7.91875V4.31875H16.3188V19.2812Z" fill="#1D2327"/>
</svg>
