<svg width="24" height="24" viewBox="0 0 24 24" fill="none" xmlns="http://www.w3.org/2000/svg">
<path fill-rule="evenodd" clip-rule="evenodd" d="M6.27783 12.2713C5.87984 12.2713 5.49817 12.4295 5.21684 12.711L3.5 14.4289V3.5H16.5418V12.2713H6.27783ZM2 18.0518L3.5 16.5509L6.27783 13.7713H16.9724C17.5606 13.7713 18.0418 13.2898 18.0418 12.7012V3.07012C18.0418 2.48155 17.5606 2 16.9724 2H3.06946C2.48126 2 2 2.48155 2 3.07012V15.9298V18.0518ZM20.3814 5.53048H19.1114V7.03048H20.3814C20.4446 7.03048 20.5003 7.08552 20.5003 7.14996V18.3806L18.305 16.184L18.0853 15.9642H17.7746H8.21628C8.15302 15.9642 8.09735 15.9091 8.09735 15.8447V14.8415H6.59735V15.8447C6.59735 16.7367 7.32372 17.4642 8.21628 17.4642H17.4638L20.7198 20.7222L22.0003 22.0035V20.1921V7.14996C22.0003 6.25797 21.2739 5.53048 20.3814 5.53048Z" fill="#1D2327"/>
</svg>
