<svg width="24" height="24" viewBox="0 0 24 24" fill="none" xmlns="http://www.w3.org/2000/svg">
<path d="M17.4167 8.14961C17.0853 8.14961 16.8167 8.41824 16.8167 8.74961C16.8167 9.08098 17.0853 9.34961 17.4167 9.34961V8.14961ZM9.35 15.0333C9.35 14.702 9.08137 14.4333 8.75 14.4333C8.41863 14.4333 8.15 14.702 8.15 15.0333H9.35ZM17.4167 16.3333L17.8409 15.9091C17.7284 15.7965 17.5758 15.7333 17.4167 15.7333V16.3333ZM19.5833 18.5L19.1591 18.9243L20.1833 19.9485V18.5H19.5833ZM14.4917 5.5V6.1V5.5ZM5.175 5.5V4.9V5.5ZM4.41666 15.25H3.81666V16.6985L4.84093 15.6743L4.41666 15.25ZM6.58333 13.0833V12.4833C6.4242 12.4833 6.27159 12.5465 6.15907 12.6591L6.58333 13.0833ZM18.825 8.14961H17.4167V9.34961H18.825V8.14961ZM8.15 15.0333C8.15 15.0337 8.15 15.0342 8.15 15.0346C8.15 15.035 8.15 15.0354 8.15 15.0358C8.15 15.0362 8.15 15.0366 8.15 15.0371C8.15 15.0375 8.15 15.0379 8.15 15.0383C8.15 15.0387 8.15 15.0391 8.15 15.0396C8.15 15.04 8.15 15.0404 8.15 15.0408C8.15 15.0412 8.15 15.0417 8.15 15.0421C8.15 15.0425 8.15 15.0429 8.15 15.0433C8.15 15.0438 8.15 15.0442 8.15 15.0446C8.15 15.045 8.15 15.0454 8.15 15.0459C8.15 15.0463 8.15 15.0467 8.15 15.0471C8.15 15.0476 8.15 15.048 8.15 15.0484C8.15 15.0488 8.15 15.0492 8.15 15.0497C8.15 15.0501 8.15 15.0505 8.15 15.0509C8.15 15.0514 8.15 15.0518 8.15 15.0522C8.15 15.0526 8.15 15.0531 8.15 15.0535C8.15 15.0539 8.15 15.0544 8.15 15.0548C8.15 15.0552 8.15 15.0556 8.15 15.0561C8.15 15.0565 8.15 15.0569 8.15 15.0574C8.15 15.0578 8.15 15.0582 8.15 15.0586C8.15 15.0591 8.15 15.0595 8.15 15.0599C8.15 15.0604 8.15 15.0608 8.15 15.0612C8.15 15.0617 8.15 15.0621 8.15 15.0625C8.15 15.063 8.15 15.0634 8.15 15.0638C8.15 15.0642 8.15 15.0647 8.15 15.0651C8.15 15.0655 8.15 15.066 8.15 15.0664C8.15 15.0669 8.15 15.0673 8.15 15.0677C8.15 15.0682 8.15 15.0686 8.15 15.069C8.15 15.0695 8.15 15.0699 8.15 15.0703C8.15 15.0708 8.15 15.0712 8.15 15.0716C8.15 15.0721 8.15 15.0725 8.15 15.073C8.15 15.0734 8.15 15.0738 8.15 15.0743C8.15 15.0747 8.15 15.0752 8.15 15.0756C8.15 15.076 8.15 15.0765 8.15 15.0769C8.15 15.0774 8.15 15.0778 8.15 15.0782C8.15 15.0787 8.15 15.0791 8.15 15.0796C8.15 15.08 8.15 15.0804 8.15 15.0809C8.15 15.0813 8.15 15.0818 8.15 15.0822C8.15 15.0827 8.15 15.0831 8.15 15.0835C8.15 15.084 8.15 15.0844 8.15 15.0849C8.15 15.0853 8.15 15.0858 8.15 15.0862C8.15 15.0866 8.15 15.0871 8.15 15.0875C8.15 15.088 8.15 15.0884 8.15 15.0889C8.15 15.0893 8.15 15.0898 8.15 15.0902C8.15 15.0907 8.15 15.0911 8.15 15.0916C8.15 15.092 8.15 15.0924 8.15 15.0929C8.15 15.0933 8.15 15.0938 8.15 15.0942C8.15 15.0947 8.15 15.0951 8.15 15.0956C8.15 15.096 8.15 15.0965 8.15 15.0969C8.15 15.0974 8.15 15.0978 8.15 15.0983C8.15 15.0987 8.15 15.0992 8.15 15.0996C8.15 15.1001 8.15 15.1005 8.15 15.101C8.15 15.1014 8.15 15.1019 8.15 15.1023C8.15 15.1028 8.15 15.1032 8.15 15.1037C8.15 15.1041 8.15 15.1046 8.15 15.1051C8.15 15.1055 8.15 15.106 8.15 15.1064C8.15 15.1069 8.15 15.1073 8.15 15.1078C8.15 15.1082 8.15 15.1087 8.15 15.1091C8.15 15.1096 8.15 15.11 8.15 15.1105C8.15 15.111 8.15 15.1114 8.15 15.1119C8.15 15.1123 8.15 15.1128 8.15 15.1132C8.15 15.1137 8.15 15.1141 8.15 15.1146C8.15 15.1151 8.15 15.1155 8.15 15.116C8.15 15.1164 8.15 15.1169 8.15 15.1173C8.15 15.1178 8.15 15.1183 8.15 15.1187C8.15 15.1192 8.15 15.1196 8.15 15.1201C8.15 15.1205 8.15 15.121 8.15 15.1215C8.15 15.1219 8.15 15.1224 8.15 15.1228C8.15 15.1233 8.15 15.1238 8.15 15.1242C8.15 15.1247 8.15 15.1251 8.15 15.1256C8.15 15.1261 8.15 15.1265 8.15 15.127C8.15 15.1274 8.15 15.1279 8.15 15.1284C8.15 15.1288 8.15 15.1293 8.15 15.1297C8.15 15.1302 8.15 15.1307 8.15 15.1311C8.15 15.1316 8.15 15.1321 8.15 15.1325C8.15 15.133 8.15 15.1334 8.15 15.1339C8.15 15.1344 8.15 15.1348 8.15 15.1353C8.15 15.1358 8.15 15.1362 8.15 15.1367C8.15 15.1371 8.15 15.1376 8.15 15.1381C8.15 15.1385 8.15 15.139 8.15 15.1395C8.15 15.1399 8.15 15.1404 8.15 15.1409C8.15 15.1413 8.15 15.1418 8.15 15.1423C8.15 15.1427 8.15 15.1432 8.15 15.1436C8.15 15.1441 8.15 15.1446 8.15 15.145C8.15 15.1455 8.15 15.146 8.15 15.1464C8.15 15.1469 8.15 15.1474 8.15 15.1478C8.15 15.1483 8.15 15.1488 8.15 15.1492C8.15 15.1497 8.15 15.1502 8.15 15.1506C8.15 15.1511 8.15 15.1516 8.15 15.152C8.15 15.1525 8.15 15.153 8.15 15.1534C8.15 15.1539 8.15 15.1544 8.15 15.1548C8.15 15.1553 8.15 15.1558 8.15 15.1562C8.15 15.1567 8.15 15.1572 8.15 15.1577C8.15 15.1581 8.15 15.1586 8.15 15.1591C8.15 15.1595 8.15 15.16 8.15 15.1605C8.15 15.1609 8.15 15.1614 8.15 15.1619C8.15 15.1623 8.15 15.1628 8.15 15.1633C8.15 15.1637 8.15 15.1642 8.15 15.1647C8.15 15.1652 8.15 15.1656 8.15 15.1661C8.15 15.1666 8.15 15.167 8.15 15.1675C8.15 15.168 8.15 15.1684 8.15 15.1689C8.15 15.1694 8.15 15.1699 8.15 15.1703C8.15 15.1708 8.15 15.1713 8.15 15.1717C8.15 15.1722 8.15 15.1727 8.15 15.1732C8.15 15.1736 8.15 15.1741 8.15 15.1746C8.15 15.175 8.15 15.1755 8.15 15.176C8.15 15.1765 8.15 15.1769 8.15 15.1774C8.15 15.1779 8.15 15.1783 8.15 15.1788C8.15 15.1793 8.15 15.1798 8.15 15.1802C8.15 15.1807 8.15 15.1812 8.15 15.1816C8.15 15.1821 8.15 15.1826 8.15 15.1831C8.15 15.1835 8.15 15.184 8.15 15.1845C8.15 15.185 8.15 15.1854 8.15 15.1859C8.15 15.1864 8.15 15.1868 8.15 15.1873C8.15 15.1878 8.15 15.1883 8.15 15.1887C8.15 15.1892 8.15 15.1897 8.15 15.1902C8.15 15.1906 8.15 15.1911 8.15 15.1916C8.15 15.192 8.15 15.1925 8.15 15.193C8.15 15.1935 8.15 15.1939 8.15 15.1944C8.15 15.1949 8.15 15.1954 8.15 15.1958C8.15 15.1963 8.15 15.1968 8.15 15.1973C8.15 15.1977 8.15 15.1982 8.15 15.1987C8.15 15.1992 8.15 15.1996 8.15 15.2001C8.15 15.2006 8.15 15.201 8.15 15.2015C8.15 15.202 8.15 15.2025 8.15 15.2029C8.15 15.2034 8.15 15.2039 8.15 15.2044C8.15 15.2048 8.15 15.2053 8.15 15.2058C8.15 15.2063 8.15 15.2067 8.15 15.2072C8.15 15.2077 8.15 15.2082 8.15 15.2086C8.15 15.2091 8.15 15.2096 8.15 15.2101C8.15 15.2105 8.15 15.211 8.15 15.2115C8.15 15.212 8.15 15.2124 8.15 15.2129C8.15 15.2134 8.15 15.2139 8.15 15.2143C8.15 15.2148 8.15 15.2153 8.15 15.2157C8.15 15.2162 8.15 15.2167 8.15 15.2172C8.15 15.2176 8.15 15.2181 8.15 15.2186C8.15 15.2191 8.15 15.2195 8.15 15.22C8.15 15.2205 8.15 15.221 8.15 15.2214C8.15 15.2219 8.15 15.2224 8.15 15.2229C8.15 15.2233 8.15 15.2238 8.15 15.2243C8.15 15.2248 8.15 15.2252 8.15 15.2257C8.15 15.2262 8.15 15.2267 8.15 15.2271C8.15 15.2276 8.15 15.2281 8.15 15.2286C8.15 15.229 8.15 15.2295 8.15 15.23C8.15 15.2305 8.15 15.2309 8.15 15.2314C8.15 15.2319 8.15 15.2323 8.15 15.2328C8.15 15.2333 8.15 15.2338 8.15 15.2342C8.15 15.2347 8.15 15.2352 8.15 15.2357C8.15 15.2361 8.15 15.2366 8.15 15.2371C8.15 15.2376 8.15 15.238 8.15 15.2385C8.15 15.239 8.15 15.2395 8.15 15.2399C8.15 15.2404 8.15 15.2409 8.15 15.2413C8.15 15.2418 8.15 15.2423 8.15 15.2428C8.15 15.2432 8.15 15.2437 8.15 15.2442C8.15 15.2447 8.15 15.2451 8.15 15.2456C8.15 15.2461 8.15 15.2466 8.15 15.247C8.15 15.2475 8.15 15.248 8.15 15.2484C8.15 15.2489 8.15 15.2494 8.15 15.2499C8.15 15.2503 8.15 15.2508 8.15 15.2513C8.15 15.2518 8.15 15.2522 8.15 15.2527C8.15 15.2532 8.15 15.2536 8.15 15.2541C8.15 15.2546 8.15 15.2551 8.15 15.2555C8.15 15.256 8.15 15.2565 8.15 15.2569C8.15 15.2574 8.15 15.2579 8.15 15.2584C8.15 15.2588 8.15 15.2593 8.15 15.2598C8.15 15.2602 8.15 15.2607 8.15 15.2612C8.15 15.2617 8.15 15.2621 8.15 15.2626C8.15 15.2631 8.15 15.2635 8.15 15.264C8.15 15.2645 8.15 15.265 8.15 15.2654C8.15 15.2659 8.15 15.2664 8.15 15.2668C8.15 15.2673 8.15 15.2678 8.15 15.2683C8.15 15.2687 8.15 15.2692 8.15 15.2697C8.15 15.2701 8.15 15.2706 8.15 15.2711C8.15 15.2715 8.15 15.272 8.15 15.2725C8.15 15.2729 8.15 15.2734 8.15 15.2739C8.15 15.2744 8.15 15.2748 8.15 15.2753C8.15 15.2758 8.15 15.2762 8.15 15.2767C8.15 15.2772 8.15 15.2776 8.15 15.2781C8.15 15.2786 8.15 15.279 8.15 15.2795C8.15 15.28 8.15 15.2804 8.15 15.2809C8.15 15.2814 8.15 15.2818 8.15 15.2823C8.15 15.2828 8.15 15.2832 8.15 15.2837C8.15 15.2842 8.15 15.2847 8.15 15.2851C8.15 15.2856 8.15 15.2861 8.15 15.2865C8.15 15.287 8.15 15.2875 8.15 15.2879C8.15 15.2884 8.15 15.2888 8.15 15.2893C8.15 15.2898 8.15 15.2902 8.15 15.2907C8.15 15.2912 8.15 15.2916 8.15 15.2921C8.15 15.2926 8.15 15.293 8.15 15.2935C8.15 15.294 8.15 15.2944 8.15 15.2949C8.15 15.2954 8.15 15.2958 8.15 15.2963C8.15 15.2968 8.15 15.2972 8.15 15.2977C8.15 15.2981 8.15 15.2986 8.15 15.2991C8.15 15.2995 8.15 15.3 8.15 15.3005C8.15 15.3009 8.15 15.3014 8.15 15.3018C8.15 15.3023 8.15 15.3028 8.15 15.3032C8.15 15.3037 8.15 15.3042 8.15 15.3046C8.15 15.3051 8.15 15.3055 8.15 15.306C8.15 15.3065 8.15 15.3069 8.15 15.3074C8.15 15.3078 8.15 15.3083 8.15 15.3088C8.15 15.3092 8.15 15.3097 8.15 15.3101C8.15 15.3106 8.15 15.3111 8.15 15.3115C8.15 15.312 8.15 15.3124 8.15 15.3129C8.15 15.3134 8.15 15.3138 8.15 15.3143C8.15 15.3147 8.15 15.3152 8.15 15.3157C8.15 15.3161 8.15 15.3166 8.15 15.317C8.15 15.3175 8.15 15.3179 8.15 15.3184C8.15 15.3189 8.15 15.3193 8.15 15.3198C8.15 15.3202 8.15 15.3207 8.15 15.3211C8.15 15.3216 8.15 15.3221 8.15 15.3225C8.15 15.323 8.15 15.3234 8.15 15.3239C8.15 15.3243 8.15 15.3248 8.15 15.3252C8.15 15.3257 8.15 15.3262 8.15 15.3266C8.15 15.3271 8.15 15.3275 8.15 15.328C8.15 15.3284 8.15 15.3289 8.15 15.3293C8.15 15.3298 8.15 15.3302 8.15 15.3307C8.15 15.3311 8.15 15.3316 8.15 15.332C8.15 15.3325 8.15 15.3329 8.15 15.3334C8.15 15.3339 8.15 15.3343 8.15 15.3348C8.15 15.3352 8.15 15.3357 8.15 15.3361C8.15 15.3366 8.15 15.337 8.15 15.3375C8.15 15.3379 8.15 15.3384 8.15 15.3388C8.15 15.3393 8.15 15.3397 8.15 15.3402C8.15 15.3406 8.15 15.341 8.15 15.3415C8.15 15.3419 8.15 15.3424 8.15 15.3428C8.15 15.3433 8.15 15.3437 8.15 15.3442C8.15 15.3446 8.15 15.3451 8.15 15.3455C8.15 15.346 8.15 15.3464 8.15 15.3469C8.15 15.3473 8.15 15.3478 8.15 15.3482C8.15 15.3486 8.15 15.3491 8.15 15.3495C8.15 15.35 8.15 15.3504 8.15 15.3509C8.15 15.3513 8.15 15.3517 8.15 15.3522C8.15 15.3526 8.15 15.3531 8.15 15.3535C8.15 15.354 8.15 15.3544 8.15 15.3548C8.15 15.3553 8.15 15.3557 8.15 15.3562C8.15 15.3566 8.15 15.3571 8.15 15.3575C8.15 15.3579 8.15 15.3584 8.15 15.3588C8.15 15.3593 8.15 15.3597 8.15 15.3601C8.15 15.3606 8.15 15.361 8.15 15.3614C8.15 15.3619 8.15 15.3623 8.15 15.3628C8.15 15.3632 8.15 15.3636 8.15 15.3641C8.15 15.3645 8.15 15.3649 8.15 15.3654C8.15 15.3658 8.15 15.3663 8.15 15.3667C8.15 15.3671 8.15 15.3676 8.15 15.368C8.15 15.3684 8.15 15.3689 8.15 15.3693C8.15 15.3697 8.15 15.3702 8.15 15.3706C8.15 15.371 8.15 15.3715 8.15 15.3719C8.15 15.3723 8.15 15.3728 8.15 15.3732C8.15 15.3736 8.15 15.3741 8.15 15.3745C8.15 15.3749 8.15 15.3754 8.15 15.3758C8.15 15.3762 8.15 15.3766 8.15 15.3771C8.15 15.3775 8.15 15.3779 8.15 15.3784C8.15 15.3788 8.15 15.3792 8.15 15.3797C8.15 15.3801 8.15 15.3805 8.15 15.3809C8.15 15.3814 8.15 15.3818 8.15 15.3822C8.15 15.3826 8.15 15.3831 8.15 15.3835C8.15 15.3839 8.15 15.3843 8.15 15.3848C8.15 15.3852 8.15 15.3856 8.15 15.386C8.15 15.3865 8.15 15.3869 8.15 15.3873C8.15 15.3877 8.15 15.3882 8.15 15.3886C8.15 15.389 8.15 15.3894 8.15 15.3898C8.15 15.3903 8.15 15.3907 8.15 15.3911C8.15 15.3915 8.15 15.392 8.15 15.3924C8.15 15.3928 8.15 15.3932 8.15 15.3936C8.15 15.394 8.15 15.3945 8.15 15.3949C8.15 15.3953 8.15 15.3957 8.15 15.3961C8.15 15.3966 8.15 15.397 8.15 15.3974C8.15 15.3978 8.15 15.3982 8.15 15.3986C8.15 15.3991 8.15 15.3995 8.15 15.3999C8.15 15.4003 8.15 15.4007 8.15 15.4011C8.15 15.4015 8.15 15.402 8.15 15.4024C8.15 15.4028 8.15 15.4032 8.15 15.4036C8.15 15.404 8.15 15.4044 8.15 15.4048C8.15 15.4052 8.15 15.4057 8.15 15.4061C8.15 15.4065 8.15 15.4069 8.15 15.4073C8.15 15.4077 8.15 15.4081 8.15 15.4085C8.15 15.4089 8.15 15.4093 8.15 15.4097C8.15 15.4102 8.15 15.4106 8.15 15.411C8.15 15.4114 8.15 15.4118 8.15 15.4122C8.15 15.4126 8.15 15.413 8.15 15.4134C8.15 15.4138 8.15 15.4142 8.15 15.4146C8.15 15.415 8.15 15.4154 8.15 15.4158C8.15 15.4162 8.15 15.4166 8.15 15.417C8.15 15.4174 8.15 15.4178 8.15 15.4182C8.15 15.4186 8.15 15.419 8.15 15.4194C8.15 15.4198 8.15 15.4202 8.15 15.4206C8.15 15.421 8.15 15.4214 8.15 15.4218C8.15 15.4222 8.15 15.4226 8.15 15.423C8.15 15.4234 8.15 15.4238 8.15 15.4242C8.15 15.4246 8.15 15.425 8.15 15.4254C8.15 15.4258 8.15 15.4262 8.15 15.4266C8.15 15.427 8.15 15.4273 8.15 15.4277C8.15 15.4281 8.15 15.4285 8.15 15.4289C8.15 15.4293 8.15 15.4297 8.15 15.4301C8.15 15.4305 8.15 15.4309 8.15 15.4313C8.15 15.4316 8.15 15.432 8.15 15.4324C8.15 15.4328 8.15 15.4332 8.15 15.4336C8.15 15.434 8.15 15.4344 8.15 15.4347C8.15 15.4351 8.15 15.4355 8.15 15.4359C8.15 15.4363 8.15 15.4367 8.15 15.4371C8.15 15.4374 8.15 15.4378 8.15 15.4382C8.15 15.4386 8.15 15.439 8.15 15.4394C8.15 15.4397 8.15 15.4401 8.15 15.4405C8.15 15.4409 8.15 15.4413 8.15 15.4416C8.15 15.442 8.15 15.4424 8.15 15.4428C8.15 15.4431 8.15 15.4435 8.15 15.4439C8.15 15.4443 8.15 15.4447 8.15 15.445C8.15 15.4454 8.15 15.4458 8.15 15.4462C8.15 15.4465 8.15 15.4469 8.15 15.4473C8.15 15.4477 8.15 15.448 8.15 15.4484C8.15 15.4488 8.15 15.4491 8.15 15.4495C8.15 15.4499 8.15 15.4503 8.15 15.4506C8.15 15.451 8.15 15.4514 8.15 15.4517C8.15 15.4521 8.15 15.4525 8.15 15.4528C8.15 15.4532 8.15 15.4536 8.15 15.4539C8.15 15.4543 8.15 15.4547 8.15 15.455C8.15 15.4554 8.15 15.4558 8.15 15.4561C8.15 15.4565 8.15 15.4569 8.15 15.4572C8.15 15.4576 8.15 15.4579 8.15 15.4583C8.15 15.4587 8.15 15.459 8.15 15.4594C8.15 15.4598 8.15 15.4601 8.15 15.4605C8.15 15.4608 8.15 15.4612 8.15 15.4615C8.15 15.4619 8.15 15.4623 8.15 15.4626C8.15 15.463 8.15 15.4633 8.15 15.4637C8.15 15.464 8.15 15.4644 8.15 15.4647C8.15 15.4651 8.15 15.4655 8.15 15.4658C8.15 15.4662 8.15 15.4665 8.15 15.4669C8.15 15.4672 8.15 15.4676 8.15 15.4679C8.15 15.4683 8.15 15.4686 8.15 15.469C8.15 15.4693 8.15 15.4697 8.15 15.47C8.15 15.4704 8.15 15.4707 8.15 15.4711C8.15 15.4714 8.15 15.4717 8.15 15.4721C8.15 15.4724 8.15 15.4728 8.15 15.4731C8.15 15.4735 8.15 15.4738 8.15 15.4742C8.15 15.4745 8.15 15.4748 8.15 15.4752C8.15 15.4755 8.15 15.4759 8.15 15.4762C8.15 15.4765 8.15 15.4769 8.15 15.4772C8.15 15.4776 8.15 15.4779 8.15 15.4782C8.15 15.4786 8.15 15.4789 8.15 15.4792C8.15 15.4796 8.15 15.4799 8.15 15.4802C8.15 15.4806 8.15 15.4809 8.15 15.4812C8.15 15.4816 8.15 15.4819 8.15 15.4822C8.15 15.4826 8.15 15.4829 8.15 15.4832C8.15 15.4836 8.15 15.4839 8.15 15.4842C8.15 15.4846 8.15 15.4849 8.15 15.4852C8.15 15.4855 8.15 15.4859 8.15 15.4862C8.15 15.4865 8.15 15.4868 8.15 15.4872C8.15 15.4875 8.15 15.4878 8.15 15.4881C8.15 15.4885 8.15 15.4888 8.15 15.4891C8.15 15.4894 8.15 15.4897 8.15 15.4901C8.15 15.4904 8.15 15.4907 8.15 15.491C8.15 15.4913 8.15 15.4917 8.15 15.492C8.15 15.4923 8.15 15.4926 8.15 15.4929C8.15 15.4932 8.15 15.4936 8.15 15.4939C8.15 15.4942 8.15 15.4945 8.15 15.4948C8.15 15.4951 8.15 15.4954 8.15 15.4958C8.15 15.4961 8.15 15.4964 8.15 15.4967C8.15 15.497 8.15 15.4973 8.15 15.4976C8.15 15.4979 8.15 15.4982 8.15 15.4985C8.15 15.4988 8.15 15.4991 8.15 15.4995C8.15 15.4998 8.15 15.5001 8.15 15.5004C8.15 15.5007 8.15 15.501 8.15 15.5013C8.15 15.5016 8.15 15.5019 8.15 15.5022C8.15 15.5025 8.15 15.5028 8.15 15.5031C8.15 15.5034 8.15 15.5037 8.15 15.504C8.15 15.5043 8.15 15.5046 8.15 15.5049C8.15 15.5052 8.15 15.5055 8.15 15.5058C8.15 15.5061 8.15 15.5063 8.15 15.5066C8.15 15.5069 8.15 15.5072 8.15 15.5075C8.15 15.5078 8.15 15.5081 8.15 15.5084C8.15 15.5087 8.15 15.509 8.15 15.5093C8.15 15.5096 8.15 15.5098 8.15 15.5101C8.15 15.5104 8.15 15.5107 8.15 15.511C8.15 15.5113 8.15 15.5116 8.15 15.5118C8.15 15.5121 8.15 15.5124 8.15 15.5127C8.15 15.513 8.15 15.5133 8.15 15.5135C8.15 15.5138 8.15 15.5141 8.15 15.5144C8.15 15.5147 8.15 15.5149 8.15 15.5152C8.15 15.5155 8.15 15.5158 8.15 15.516C8.15 15.5163 8.15 15.5166 8.15 15.5169C8.15 15.5171 8.15 15.5174 8.15 15.5177C8.15 15.518 8.15 15.5182 8.15 15.5185C8.15 15.5188 8.15 15.519 8.15 15.5193C8.15 15.5196 8.15 15.5198 8.15 15.5201C8.15 15.5204 8.15 15.5206 8.15 15.5209C8.15 15.5212 8.15 15.5214 8.15 15.5217C8.15 15.522 8.15 15.5222 8.15 15.5225C8.15 15.5228 8.15 15.523 8.15 15.5233C8.15 15.5235 8.15 15.5238 8.15 15.5241C8.15 15.5243 8.15 15.5246 8.15 15.5248C8.15 15.5251 8.15 15.5254 8.15 15.5256C8.15 15.5259 8.15 15.5261 8.15 15.5264C8.15 15.5266 8.15 15.5269 8.15 15.5271C8.15 15.5274 8.15 15.5276 8.15 15.5279C8.15 15.5281 8.15 15.5284 8.15 15.5286C8.15 15.5289 8.15 15.5291 8.15 15.5294C8.15 15.5296 8.15 15.5299 8.15 15.5301C8.15 15.5304 8.15 15.5306 8.15 15.5309C8.15 15.5311 8.15 15.5313 8.15 15.5316C8.15 15.5318 8.15 15.5321 8.15 15.5323C8.15 15.5325 8.15 15.5328 8.15 15.533C8.15 15.5333 8.15 15.5335 8.15 15.5337C8.15 15.534 8.15 15.5342 8.15 15.5344C8.15 15.5347 8.15 15.5349 8.15 15.5351C8.15 15.5354 8.15 15.5356 8.15 15.5358C8.15 15.5361 8.15 15.5363 8.15 15.5365C8.15 15.5368 8.15 15.537 8.15 15.5372C8.15 15.5374 8.15 15.5377 8.15 15.5379C8.15 15.5381 8.15 15.5383 8.15 15.5386C8.15 15.5388 8.15 15.539 8.15 15.5392C8.15 15.5395 8.15 15.5397 8.15 15.5399C8.15 15.5401 8.15 15.5403 8.15 15.5406C8.15 15.5408 8.15 15.541 8.15 15.5412C8.15 15.5414 8.15 15.5416 8.15 15.5419C8.15 15.5421 8.15 15.5423 8.15 15.5425C8.15 15.5427 8.15 15.5429 8.15 15.5431C8.15 15.5434 8.15 15.5436 8.15 15.5438C8.15 15.544 8.15 15.5442 8.15 15.5444C8.15 15.5446 8.15 15.5448 8.15 15.545C8.15 15.5452 8.15 15.5454 8.15 15.5456C8.15 15.5458 8.15 15.546 8.15 15.5462C8.15 15.5464 8.15 15.5466 8.15 15.5468C8.15 15.547 8.15 15.5472 8.15 15.5474C8.15 15.5476 8.15 15.5478 8.15 15.548C8.15 15.5482 8.15 15.5484 8.15 15.5486C8.15 15.5488 8.15 15.549 8.15 15.5492C8.15 15.5494 8.15 15.5496 8.15 15.5498C8.15 15.5499 8.15 15.5501 8.15 15.5503C8.15 15.5505 8.15 15.5507 8.15 15.5509C8.15 15.5511 8.15 15.5513 8.15 15.5514C8.15 15.5516 8.15 15.5518 8.15 15.552C8.15 15.5522 8.15 15.5524 8.15 15.5525C8.15 15.5527 8.15 15.5529 8.15 15.5531C8.15 15.5532 8.15 15.5534 8.15 15.5536C8.15 15.5538 8.15 15.554 8.15 15.5541C8.15 15.5543 8.15 15.5545 8.15 15.5546C8.15 15.5548 8.15 15.555 8.15 15.5552C8.15 15.5553 8.15 15.5555 8.15 15.5557C8.15 15.5558 8.15 15.556 8.15 15.5562C8.15 15.5563 8.15 15.5565 8.15 15.5567C8.15 15.5568 8.15 15.557 8.15 15.5572C8.15 15.5573 8.15 15.5575 8.15 15.5576C8.15 15.5578 8.15 15.558 8.15 15.5581C8.15 15.5583 8.15 15.5584 8.15 15.5586C8.15 15.5587 8.15 15.5589 8.15 15.559C8.15 15.5592 8.15 15.5594 8.15 15.5595C8.15 15.5597 8.15 15.5598 8.15 15.56C8.15 15.5601 8.15 15.5603 8.15 15.5604C8.15 15.5605 8.15 15.5607 8.15 15.5608C8.15 15.561 8.15 15.5611 8.15 15.5613C8.15 15.5614 8.15 15.5616 8.15 15.5617C8.15 15.5618 8.15 15.562 8.15 15.5621C8.15 15.5623 8.15 15.5624 8.15 15.5625C8.15 15.5627 8.15 15.5628 8.15 15.5629C8.15 15.5631 8.15 15.5632 8.15 15.5633C8.15 15.5635 8.15 15.5636 8.15 15.5637C8.15 15.5639 8.15 15.564 8.15 15.5641C8.15 15.5643 8.15 15.5644 8.15 15.5645C8.15 15.5646 8.15 15.5648 8.15 15.5649C8.15 15.565 8.15 15.5651 8.15 15.5653C8.15 15.5654 8.15 15.5655 8.15 15.5656C8.15 15.5657 8.15 15.5659 8.15 15.566C8.15 15.5661 8.15 15.5662 8.15 15.5663C8.15 15.5664 8.15 15.5666 8.15 15.5667C8.15 15.5668 8.15 15.5669 8.15 15.567C8.15 15.5671 8.15 15.5672 8.15 15.5673C8.15 15.5674 8.15 15.5675 8.15 15.5677C8.15 15.5678 8.15 15.5679 8.15 15.568C8.15 15.5681 8.15 15.5682 8.15 15.5683C8.15 15.5684 8.15 15.5685 8.15 15.5686C8.15 15.5687 8.15 15.5688 8.15 15.5689C8.15 15.569 8.15 15.5691 8.15 15.5692C8.15 15.5693 8.15 15.5694 8.15 15.5695C8.15 15.5695 8.15 15.5696 8.15 15.5697C8.15 15.5698 8.15 15.5699 8.15 15.57C8.15 15.5701 8.15 15.5702 8.15 15.5703C8.15 15.5703 8.15 15.5704 8.15 15.5705C8.15 15.5706 8.15 15.5707 8.15 15.5708C8.15 15.5708 8.15 15.5709 8.15 15.571C8.15 15.5711 8.15 15.5712 8.15 15.5712C8.15 15.5713 8.15 15.5714 8.15 15.5715C8.15 15.5715 8.15 15.5716 8.15 15.5717C8.15 15.5718 8.15 15.5718 8.15 15.5719C8.15 15.572 8.15 15.572 8.15 15.5721C8.15 15.5722 8.15 15.5722 8.15 15.5723C8.15 15.5724 8.15 15.5724 8.15 15.5725C8.15 15.5726 8.15 15.5726 8.15 15.5727C8.15 15.5728 8.15 15.5728 8.15 15.5729C8.15 15.5729 8.15 15.573 8.15 15.573C8.15 15.5731 8.15 15.5732 8.15 15.5732C8.15 15.5733 8.15 15.5733 8.15 15.5734C8.15 15.5734 8.15 15.5735 8.15 15.5735C8.15 15.5736 8.15 15.5736 8.15 15.5737C8.15 15.5737 8.15 15.5738 8.15 15.5738C8.15 15.5738 8.15 15.5739 8.15 15.5739C8.15 15.574 8.15 15.574 8.15 15.574C8.15 15.5741 8.15 15.5741 8.15 15.5742C8.15 15.5742 8.15 15.5742 8.15 15.5743C8.15 15.5743 8.15 15.5743 8.15 15.5744C8.15 15.5744 8.15 15.5744 8.15 15.5745C8.15 15.5745 8.15 15.5745 8.15 15.5745C8.15 15.5746 8.15 15.5746 8.15 15.5746C8.15 15.5747 8.15 15.5747 8.15 15.5747C8.15 15.5747 8.15 15.5747 8.15 15.5748C8.15 15.5748 8.15 15.5748 8.15 15.5748C8.15 15.5748 8.15 15.5749 8.15 15.5749C8.15 15.5749 8.15 15.5749 8.15 15.5749C8.15 15.5749 8.15 15.5749 8.15 15.5749C8.15 15.575 8.15 15.575 8.15 15.575C8.15 15.575 8.15 15.575 8.15 15.575C8.15 15.575 8.15 15.575 8.15 15.575C8.15 15.575 8.15 15.575 8.75 15.575C9.35 15.575 9.35 15.575 9.35 15.575C9.35 15.575 9.35 15.575 9.35 15.575C9.35 15.575 9.35 15.575 9.35 15.575C9.35 15.575 9.35 15.575 9.35 15.5749C9.35 15.5749 9.35 15.5749 9.35 15.5749C9.35 15.5749 9.35 15.5749 9.35 15.5749C9.35 15.5749 9.35 15.5748 9.35 15.5748C9.35 15.5748 9.35 15.5748 9.35 15.5748C9.35 15.5747 9.35 15.5747 9.35 15.5747C9.35 15.5747 9.35 15.5747 9.35 15.5746C9.35 15.5746 9.35 15.5746 9.35 15.5745C9.35 15.5745 9.35 15.5745 9.35 15.5745C9.35 15.5744 9.35 15.5744 9.35 15.5744C9.35 15.5743 9.35 15.5743 9.35 15.5743C9.35 15.5742 9.35 15.5742 9.35 15.5742C9.35 15.5741 9.35 15.5741 9.35 15.574C9.35 15.574 9.35 15.574 9.35 15.5739C9.35 15.5739 9.35 15.5738 9.35 15.5738C9.35 15.5738 9.35 15.5737 9.35 15.5737C9.35 15.5736 9.35 15.5736 9.35 15.5735C9.35 15.5735 9.35 15.5734 9.35 15.5734C9.35 15.5733 9.35 15.5733 9.35 15.5732C9.35 15.5732 9.35 15.5731 9.35 15.573C9.35 15.573 9.35 15.5729 9.35 15.5729C9.35 15.5728 9.35 15.5728 9.35 15.5727C9.35 15.5726 9.35 15.5726 9.35 15.5725C9.35 15.5724 9.35 15.5724 9.35 15.5723C9.35 15.5722 9.35 15.5722 9.35 15.5721C9.35 15.572 9.35 15.572 9.35 15.5719C9.35 15.5718 9.35 15.5718 9.35 15.5717C9.35 15.5716 9.35 15.5715 9.35 15.5715C9.35 15.5714 9.35 15.5713 9.35 15.5712C9.35 15.5712 9.35 15.5711 9.35 15.571C9.35 15.5709 9.35 15.5708 9.35 15.5708C9.35 15.5707 9.35 15.5706 9.35 15.5705C9.35 15.5704 9.35 15.5703 9.35 15.5703C9.35 15.5702 9.35 15.5701 9.35 15.57C9.35 15.5699 9.35 15.5698 9.35 15.5697C9.35 15.5696 9.35 15.5695 9.35 15.5695C9.35 15.5694 9.35 15.5693 9.35 15.5692C9.35 15.5691 9.35 15.569 9.35 15.5689C9.35 15.5688 9.35 15.5687 9.35 15.5686C9.35 15.5685 9.35 15.5684 9.35 15.5683C9.35 15.5682 9.35 15.5681 9.35 15.568C9.35 15.5679 9.35 15.5678 9.35 15.5677C9.35 15.5675 9.35 15.5674 9.35 15.5673C9.35 15.5672 9.35 15.5671 9.35 15.567C9.35 15.5669 9.35 15.5668 9.35 15.5667C9.35 15.5666 9.35 15.5664 9.35 15.5663C9.35 15.5662 9.35 15.5661 9.35 15.566C9.35 15.5659 9.35 15.5657 9.35 15.5656C9.35 15.5655 9.35 15.5654 9.35 15.5653C9.35 15.5651 9.35 15.565 9.35 15.5649C9.35 15.5648 9.35 15.5646 9.35 15.5645C9.35 15.5644 9.35 15.5643 9.35 15.5641C9.35 15.564 9.35 15.5639 9.35 15.5637C9.35 15.5636 9.35 15.5635 9.35 15.5633C9.35 15.5632 9.35 15.5631 9.35 15.5629C9.35 15.5628 9.35 15.5627 9.35 15.5625C9.35 15.5624 9.35 15.5623 9.35 15.5621C9.35 15.562 9.35 15.5618 9.35 15.5617C9.35 15.5616 9.35 15.5614 9.35 15.5613C9.35 15.5611 9.35 15.561 9.35 15.5608C9.35 15.5607 9.35 15.5605 9.35 15.5604C9.35 15.5603 9.35 15.5601 9.35 15.56C9.35 15.5598 9.35 15.5597 9.35 15.5595C9.35 15.5594 9.35 15.5592 9.35 15.559C9.35 15.5589 9.35 15.5587 9.35 15.5586C9.35 15.5584 9.35 15.5583 9.35 15.5581C9.35 15.558 9.35 15.5578 9.35 15.5576C9.35 15.5575 9.35 15.5573 9.35 15.5572C9.35 15.557 9.35 15.5568 9.35 15.5567C9.35 15.5565 9.35 15.5563 9.35 15.5562C9.35 15.556 9.35 15.5558 9.35 15.5557C9.35 15.5555 9.35 15.5553 9.35 15.5552C9.35 15.555 9.35 15.5548 9.35 15.5546C9.35 15.5545 9.35 15.5543 9.35 15.5541C9.35 15.554 9.35 15.5538 9.35 15.5536C9.35 15.5534 9.35 15.5532 9.35 15.5531C9.35 15.5529 9.35 15.5527 9.35 15.5525C9.35 15.5524 9.35 15.5522 9.35 15.552C9.35 15.5518 9.35 15.5516 9.35 15.5514C9.35 15.5513 9.35 15.5511 9.35 15.5509C9.35 15.5507 9.35 15.5505 9.35 15.5503C9.35 15.5501 9.35 15.5499 9.35 15.5498C9.35 15.5496 9.35 15.5494 9.35 15.5492C9.35 15.549 9.35 15.5488 9.35 15.5486C9.35 15.5484 9.35 15.5482 9.35 15.548C9.35 15.5478 9.35 15.5476 9.35 15.5474C9.35 15.5472 9.35 15.547 9.35 15.5468C9.35 15.5466 9.35 15.5464 9.35 15.5462C9.35 15.546 9.35 15.5458 9.35 15.5456C9.35 15.5454 9.35 15.5452 9.35 15.545C9.35 15.5448 9.35 15.5446 9.35 15.5444C9.35 15.5442 9.35 15.544 9.35 15.5438C9.35 15.5436 9.35 15.5434 9.35 15.5431C9.35 15.5429 9.35 15.5427 9.35 15.5425C9.35 15.5423 9.35 15.5421 9.35 15.5419C9.35 15.5416 9.35 15.5414 9.35 15.5412C9.35 15.541 9.35 15.5408 9.35 15.5406C9.35 15.5403 9.35 15.5401 9.35 15.5399C9.35 15.5397 9.35 15.5395 9.35 15.5392C9.35 15.539 9.35 15.5388 9.35 15.5386C9.35 15.5383 9.35 15.5381 9.35 15.5379C9.35 15.5377 9.35 15.5374 9.35 15.5372C9.35 15.537 9.35 15.5368 9.35 15.5365C9.35 15.5363 9.35 15.5361 9.35 15.5358C9.35 15.5356 9.35 15.5354 9.35 15.5351C9.35 15.5349 9.35 15.5347 9.35 15.5344C9.35 15.5342 9.35 15.534 9.35 15.5337C9.35 15.5335 9.35 15.5333 9.35 15.533C9.35 15.5328 9.35 15.5325 9.35 15.5323C9.35 15.5321 9.35 15.5318 9.35 15.5316C9.35 15.5313 9.35 15.5311 9.35 15.5309C9.35 15.5306 9.35 15.5304 9.35 15.5301C9.35 15.5299 9.35 15.5296 9.35 15.5294C9.35 15.5291 9.35 15.5289 9.35 15.5286C9.35 15.5284 9.35 15.5281 9.35 15.5279C9.35 15.5276 9.35 15.5274 9.35 15.5271C9.35 15.5269 9.35 15.5266 9.35 15.5264C9.35 15.5261 9.35 15.5259 9.35 15.5256C9.35 15.5254 9.35 15.5251 9.35 15.5248C9.35 15.5246 9.35 15.5243 9.35 15.5241C9.35 15.5238 9.35 15.5235 9.35 15.5233C9.35 15.523 9.35 15.5228 9.35 15.5225C9.35 15.5222 9.35 15.522 9.35 15.5217C9.35 15.5214 9.35 15.5212 9.35 15.5209C9.35 15.5206 9.35 15.5204 9.35 15.5201C9.35 15.5198 9.35 15.5196 9.35 15.5193C9.35 15.519 9.35 15.5188 9.35 15.5185C9.35 15.5182 9.35 15.518 9.35 15.5177C9.35 15.5174 9.35 15.5171 9.35 15.5169C9.35 15.5166 9.35 15.5163 9.35 15.516C9.35 15.5158 9.35 15.5155 9.35 15.5152C9.35 15.5149 9.35 15.5147 9.35 15.5144C9.35 15.5141 9.35 15.5138 9.35 15.5135C9.35 15.5133 9.35 15.513 9.35 15.5127C9.35 15.5124 9.35 15.5121 9.35 15.5118C9.35 15.5116 9.35 15.5113 9.35 15.511C9.35 15.5107 9.35 15.5104 9.35 15.5101C9.35 15.5098 9.35 15.5096 9.35 15.5093C9.35 15.509 9.35 15.5087 9.35 15.5084C9.35 15.5081 9.35 15.5078 9.35 15.5075C9.35 15.5072 9.35 15.5069 9.35 15.5066C9.35 15.5063 9.35 15.5061 9.35 15.5058C9.35 15.5055 9.35 15.5052 9.35 15.5049C9.35 15.5046 9.35 15.5043 9.35 15.504C9.35 15.5037 9.35 15.5034 9.35 15.5031C9.35 15.5028 9.35 15.5025 9.35 15.5022C9.35 15.5019 9.35 15.5016 9.35 15.5013C9.35 15.501 9.35 15.5007 9.35 15.5004C9.35 15.5001 9.35 15.4998 9.35 15.4995C9.35 15.4991 9.35 15.4988 9.35 15.4985C9.35 15.4982 9.35 15.4979 9.35 15.4976C9.35 15.4973 9.35 15.497 9.35 15.4967C9.35 15.4964 9.35 15.4961 9.35 15.4958C9.35 15.4954 9.35 15.4951 9.35 15.4948C9.35 15.4945 9.35 15.4942 9.35 15.4939C9.35 15.4936 9.35 15.4932 9.35 15.4929C9.35 15.4926 9.35 15.4923 9.35 15.492C9.35 15.4917 9.35 15.4913 9.35 15.491C9.35 15.4907 9.35 15.4904 9.35 15.4901C9.35 15.4897 9.35 15.4894 9.35 15.4891C9.35 15.4888 9.35 15.4885 9.35 15.4881C9.35 15.4878 9.35 15.4875 9.35 15.4872C9.35 15.4868 9.35 15.4865 9.35 15.4862C9.35 15.4859 9.35 15.4855 9.35 15.4852C9.35 15.4849 9.35 15.4846 9.35 15.4842C9.35 15.4839 9.35 15.4836 9.35 15.4832C9.35 15.4829 9.35 15.4826 9.35 15.4822C9.35 15.4819 9.35 15.4816 9.35 15.4812C9.35 15.4809 9.35 15.4806 9.35 15.4802C9.35 15.4799 9.35 15.4796 9.35 15.4792C9.35 15.4789 9.35 15.4786 9.35 15.4782C9.35 15.4779 9.35 15.4776 9.35 15.4772C9.35 15.4769 9.35 15.4765 9.35 15.4762C9.35 15.4759 9.35 15.4755 9.35 15.4752C9.35 15.4748 9.35 15.4745 9.35 15.4742C9.35 15.4738 9.35 15.4735 9.35 15.4731C9.35 15.4728 9.35 15.4724 9.35 15.4721C9.35 15.4717 9.35 15.4714 9.35 15.4711C9.35 15.4707 9.35 15.4704 9.35 15.47C9.35 15.4697 9.35 15.4693 9.35 15.469C9.35 15.4686 9.35 15.4683 9.35 15.4679C9.35 15.4676 9.35 15.4672 9.35 15.4669C9.35 15.4665 9.35 15.4662 9.35 15.4658C9.35 15.4655 9.35 15.4651 9.35 15.4647C9.35 15.4644 9.35 15.464 9.35 15.4637C9.35 15.4633 9.35 15.463 9.35 15.4626C9.35 15.4623 9.35 15.4619 9.35 15.4615C9.35 15.4612 9.35 15.4608 9.35 15.4605C9.35 15.4601 9.35 15.4598 9.35 15.4594C9.35 15.459 9.35 15.4587 9.35 15.4583C9.35 15.4579 9.35 15.4576 9.35 15.4572C9.35 15.4569 9.35 15.4565 9.35 15.4561C9.35 15.4558 9.35 15.4554 9.35 15.455C9.35 15.4547 9.35 15.4543 9.35 15.4539C9.35 15.4536 9.35 15.4532 9.35 15.4528C9.35 15.4525 9.35 15.4521 9.35 15.4517C9.35 15.4514 9.35 15.451 9.35 15.4506C9.35 15.4503 9.35 15.4499 9.35 15.4495C9.35 15.4491 9.35 15.4488 9.35 15.4484C9.35 15.448 9.35 15.4477 9.35 15.4473C9.35 15.4469 9.35 15.4465 9.35 15.4462C9.35 15.4458 9.35 15.4454 9.35 15.445C9.35 15.4447 9.35 15.4443 9.35 15.4439C9.35 15.4435 9.35 15.4431 9.35 15.4428C9.35 15.4424 9.35 15.442 9.35 15.4416C9.35 15.4413 9.35 15.4409 9.35 15.4405C9.35 15.4401 9.35 15.4397 9.35 15.4394C9.35 15.439 9.35 15.4386 9.35 15.4382C9.35 15.4378 9.35 15.4374 9.35 15.4371C9.35 15.4367 9.35 15.4363 9.35 15.4359C9.35 15.4355 9.35 15.4351 9.35 15.4347C9.35 15.4344 9.35 15.434 9.35 15.4336C9.35 15.4332 9.35 15.4328 9.35 15.4324C9.35 15.432 9.35 15.4316 9.35 15.4313C9.35 15.4309 9.35 15.4305 9.35 15.4301C9.35 15.4297 9.35 15.4293 9.35 15.4289C9.35 15.4285 9.35 15.4281 9.35 15.4277C9.35 15.4273 9.35 15.427 9.35 15.4266C9.35 15.4262 9.35 15.4258 9.35 15.4254C9.35 15.425 9.35 15.4246 9.35 15.4242C9.35 15.4238 9.35 15.4234 9.35 15.423C9.35 15.4226 9.35 15.4222 9.35 15.4218C9.35 15.4214 9.35 15.421 9.35 15.4206C9.35 15.4202 9.35 15.4198 9.35 15.4194C9.35 15.419 9.35 15.4186 9.35 15.4182C9.35 15.4178 9.35 15.4174 9.35 15.417C9.35 15.4166 9.35 15.4162 9.35 15.4158C9.35 15.4154 9.35 15.415 9.35 15.4146C9.35 15.4142 9.35 15.4138 9.35 15.4134C9.35 15.413 9.35 15.4126 9.35 15.4122C9.35 15.4118 9.35 15.4114 9.35 15.411C9.35 15.4106 9.35 15.4102 9.35 15.4097C9.35 15.4093 9.35 15.4089 9.35 15.4085C9.35 15.4081 9.35 15.4077 9.35 15.4073C9.35 15.4069 9.35 15.4065 9.35 15.4061C9.35 15.4057 9.35 15.4052 9.35 15.4048C9.35 15.4044 9.35 15.404 9.35 15.4036C9.35 15.4032 9.35 15.4028 9.35 15.4024C9.35 15.402 9.35 15.4015 9.35 15.4011C9.35 15.4007 9.35 15.4003 9.35 15.3999C9.35 15.3995 9.35 15.3991 9.35 15.3986C9.35 15.3982 9.35 15.3978 9.35 15.3974C9.35 15.397 9.35 15.3966 9.35 15.3961C9.35 15.3957 9.35 15.3953 9.35 15.3949C9.35 15.3945 9.35 15.394 9.35 15.3936C9.35 15.3932 9.35 15.3928 9.35 15.3924C9.35 15.392 9.35 15.3915 9.35 15.3911C9.35 15.3907 9.35 15.3903 9.35 15.3898C9.35 15.3894 9.35 15.389 9.35 15.3886C9.35 15.3882 9.35 15.3877 9.35 15.3873C9.35 15.3869 9.35 15.3865 9.35 15.386C9.35 15.3856 9.35 15.3852 9.35 15.3848C9.35 15.3843 9.35 15.3839 9.35 15.3835C9.35 15.3831 9.35 15.3826 9.35 15.3822C9.35 15.3818 9.35 15.3814 9.35 15.3809C9.35 15.3805 9.35 15.3801 9.35 15.3797C9.35 15.3792 9.35 15.3788 9.35 15.3784C9.35 15.3779 9.35 15.3775 9.35 15.3771C9.35 15.3766 9.35 15.3762 9.35 15.3758C9.35 15.3754 9.35 15.3749 9.35 15.3745C9.35 15.3741 9.35 15.3736 9.35 15.3732C9.35 15.3728 9.35 15.3723 9.35 15.3719C9.35 15.3715 9.35 15.371 9.35 15.3706C9.35 15.3702 9.35 15.3697 9.35 15.3693C9.35 15.3689 9.35 15.3684 9.35 15.368C9.35 15.3676 9.35 15.3671 9.35 15.3667C9.35 15.3663 9.35 15.3658 9.35 15.3654C9.35 15.3649 9.35 15.3645 9.35 15.3641C9.35 15.3636 9.35 15.3632 9.35 15.3628C9.35 15.3623 9.35 15.3619 9.35 15.3614C9.35 15.361 9.35 15.3606 9.35 15.3601C9.35 15.3597 9.35 15.3593 9.35 15.3588C9.35 15.3584 9.35 15.3579 9.35 15.3575C9.35 15.3571 9.35 15.3566 9.35 15.3562C9.35 15.3557 9.35 15.3553 9.35 15.3548C9.35 15.3544 9.35 15.354 9.35 15.3535C9.35 15.3531 9.35 15.3526 9.35 15.3522C9.35 15.3517 9.35 15.3513 9.35 15.3509C9.35 15.3504 9.35 15.35 9.35 15.3495C9.35 15.3491 9.35 15.3486 9.35 15.3482C9.35 15.3478 9.35 15.3473 9.35 15.3469C9.35 15.3464 9.35 15.346 9.35 15.3455C9.35 15.3451 9.35 15.3446 9.35 15.3442C9.35 15.3437 9.35 15.3433 9.35 15.3428C9.35 15.3424 9.35 15.3419 9.35 15.3415C9.35 15.341 9.35 15.3406 9.35 15.3402C9.35 15.3397 9.35 15.3393 9.35 15.3388C9.35 15.3384 9.35 15.3379 9.35 15.3375C9.35 15.337 9.35 15.3366 9.35 15.3361C9.35 15.3357 9.35 15.3352 9.35 15.3348C9.35 15.3343 9.35 15.3339 9.35 15.3334C9.35 15.3329 9.35 15.3325 9.35 15.332C9.35 15.3316 9.35 15.3311 9.35 15.3307C9.35 15.3302 9.35 15.3298 9.35 15.3293C9.35 15.3289 9.35 15.3284 9.35 15.328C9.35 15.3275 9.35 15.3271 9.35 15.3266C9.35 15.3262 9.35 15.3257 9.35 15.3252C9.35 15.3248 9.35 15.3243 9.35 15.3239C9.35 15.3234 9.35 15.323 9.35 15.3225C9.35 15.3221 9.35 15.3216 9.35 15.3211C9.35 15.3207 9.35 15.3202 9.35 15.3198C9.35 15.3193 9.35 15.3189 9.35 15.3184C9.35 15.3179 9.35 15.3175 9.35 15.317C9.35 15.3166 9.35 15.3161 9.35 15.3157C9.35 15.3152 9.35 15.3147 9.35 15.3143C9.35 15.3138 9.35 15.3134 9.35 15.3129C9.35 15.3124 9.35 15.312 9.35 15.3115C9.35 15.3111 9.35 15.3106 9.35 15.3101C9.35 15.3097 9.35 15.3092 9.35 15.3088C9.35 15.3083 9.35 15.3078 9.35 15.3074C9.35 15.3069 9.35 15.3065 9.35 15.306C9.35 15.3055 9.35 15.3051 9.35 15.3046C9.35 15.3042 9.35 15.3037 9.35 15.3032C9.35 15.3028 9.35 15.3023 9.35 15.3018C9.35 15.3014 9.35 15.3009 9.35 15.3005C9.35 15.3 9.35 15.2995 9.35 15.2991C9.35 15.2986 9.35 15.2981 9.35 15.2977C9.35 15.2972 9.35 15.2968 9.35 15.2963C9.35 15.2958 9.35 15.2954 9.35 15.2949C9.35 15.2944 9.35 15.294 9.35 15.2935C9.35 15.293 9.35 15.2926 9.35 15.2921C9.35 15.2916 9.35 15.2912 9.35 15.2907C9.35 15.2902 9.35 15.2898 9.35 15.2893C9.35 15.2888 9.35 15.2884 9.35 15.2879C9.35 15.2875 9.35 15.287 9.35 15.2865C9.35 15.2861 9.35 15.2856 9.35 15.2851C9.35 15.2847 9.35 15.2842 9.35 15.2837C9.35 15.2832 9.35 15.2828 9.35 15.2823C9.35 15.2818 9.35 15.2814 9.35 15.2809C9.35 15.2804 9.35 15.28 9.35 15.2795C9.35 15.279 9.35 15.2786 9.35 15.2781C9.35 15.2776 9.35 15.2772 9.35 15.2767C9.35 15.2762 9.35 15.2758 9.35 15.2753C9.35 15.2748 9.35 15.2744 9.35 15.2739C9.35 15.2734 9.35 15.2729 9.35 15.2725C9.35 15.272 9.35 15.2715 9.35 15.2711C9.35 15.2706 9.35 15.2701 9.35 15.2697C9.35 15.2692 9.35 15.2687 9.35 15.2683C9.35 15.2678 9.35 15.2673 9.35 15.2668C9.35 15.2664 9.35 15.2659 9.35 15.2654C9.35 15.265 9.35 15.2645 9.35 15.264C9.35 15.2635 9.35 15.2631 9.35 15.2626C9.35 15.2621 9.35 15.2617 9.35 15.2612C9.35 15.2607 9.35 15.2602 9.35 15.2598C9.35 15.2593 9.35 15.2588 9.35 15.2584C9.35 15.2579 9.35 15.2574 9.35 15.2569C9.35 15.2565 9.35 15.256 9.35 15.2555C9.35 15.2551 9.35 15.2546 9.35 15.2541C9.35 15.2536 9.35 15.2532 9.35 15.2527C9.35 15.2522 9.35 15.2518 9.35 15.2513C9.35 15.2508 9.35 15.2503 9.35 15.2499C9.35 15.2494 9.35 15.2489 9.35 15.2484C9.35 15.248 9.35 15.2475 9.35 15.247C9.35 15.2466 9.35 15.2461 9.35 15.2456C9.35 15.2451 9.35 15.2447 9.35 15.2442C9.35 15.2437 9.35 15.2432 9.35 15.2428C9.35 15.2423 9.35 15.2418 9.35 15.2413C9.35 15.2409 9.35 15.2404 9.35 15.2399C9.35 15.2395 9.35 15.239 9.35 15.2385C9.35 15.238 9.35 15.2376 9.35 15.2371C9.35 15.2366 9.35 15.2361 9.35 15.2357C9.35 15.2352 9.35 15.2347 9.35 15.2342C9.35 15.2338 9.35 15.2333 9.35 15.2328C9.35 15.2323 9.35 15.2319 9.35 15.2314C9.35 15.2309 9.35 15.2305 9.35 15.23C9.35 15.2295 9.35 15.229 9.35 15.2286C9.35 15.2281 9.35 15.2276 9.35 15.2271C9.35 15.2267 9.35 15.2262 9.35 15.2257C9.35 15.2252 9.35 15.2248 9.35 15.2243C9.35 15.2238 9.35 15.2233 9.35 15.2229C9.35 15.2224 9.35 15.2219 9.35 15.2214C9.35 15.221 9.35 15.2205 9.35 15.22C9.35 15.2195 9.35 15.2191 9.35 15.2186C9.35 15.2181 9.35 15.2176 9.35 15.2172C9.35 15.2167 9.35 15.2162 9.35 15.2157C9.35 15.2153 9.35 15.2148 9.35 15.2143C9.35 15.2139 9.35 15.2134 9.35 15.2129C9.35 15.2124 9.35 15.212 9.35 15.2115C9.35 15.211 9.35 15.2105 9.35 15.2101C9.35 15.2096 9.35 15.2091 9.35 15.2086C9.35 15.2082 9.35 15.2077 9.35 15.2072C9.35 15.2067 9.35 15.2063 9.35 15.2058C9.35 15.2053 9.35 15.2048 9.35 15.2044C9.35 15.2039 9.35 15.2034 9.35 15.2029C9.35 15.2025 9.35 15.202 9.35 15.2015C9.35 15.201 9.35 15.2006 9.35 15.2001C9.35 15.1996 9.35 15.1992 9.35 15.1987C9.35 15.1982 9.35 15.1977 9.35 15.1973C9.35 15.1968 9.35 15.1963 9.35 15.1958C9.35 15.1954 9.35 15.1949 9.35 15.1944C9.35 15.1939 9.35 15.1935 9.35 15.193C9.35 15.1925 9.35 15.192 9.35 15.1916C9.35 15.1911 9.35 15.1906 9.35 15.1902C9.35 15.1897 9.35 15.1892 9.35 15.1887C9.35 15.1883 9.35 15.1878 9.35 15.1873C9.35 15.1868 9.35 15.1864 9.35 15.1859C9.35 15.1854 9.35 15.185 9.35 15.1845C9.35 15.184 9.35 15.1835 9.35 15.1831C9.35 15.1826 9.35 15.1821 9.35 15.1816C9.35 15.1812 9.35 15.1807 9.35 15.1802C9.35 15.1798 9.35 15.1793 9.35 15.1788C9.35 15.1783 9.35 15.1779 9.35 15.1774C9.35 15.1769 9.35 15.1765 9.35 15.176C9.35 15.1755 9.35 15.175 9.35 15.1746C9.35 15.1741 9.35 15.1736 9.35 15.1732C9.35 15.1727 9.35 15.1722 9.35 15.1717C9.35 15.1713 9.35 15.1708 9.35 15.1703C9.35 15.1699 9.35 15.1694 9.35 15.1689C9.35 15.1684 9.35 15.168 9.35 15.1675C9.35 15.167 9.35 15.1666 9.35 15.1661C9.35 15.1656 9.35 15.1652 9.35 15.1647C9.35 15.1642 9.35 15.1637 9.35 15.1633C9.35 15.1628 9.35 15.1623 9.35 15.1619C9.35 15.1614 9.35 15.1609 9.35 15.1605C9.35 15.16 9.35 15.1595 9.35 15.1591C9.35 15.1586 9.35 15.1581 9.35 15.1577C9.35 15.1572 9.35 15.1567 9.35 15.1562C9.35 15.1558 9.35 15.1553 9.35 15.1548C9.35 15.1544 9.35 15.1539 9.35 15.1534C9.35 15.153 9.35 15.1525 9.35 15.152C9.35 15.1516 9.35 15.1511 9.35 15.1506C9.35 15.1502 9.35 15.1497 9.35 15.1492C9.35 15.1488 9.35 15.1483 9.35 15.1478C9.35 15.1474 9.35 15.1469 9.35 15.1464C9.35 15.146 9.35 15.1455 9.35 15.145C9.35 15.1446 9.35 15.1441 9.35 15.1436C9.35 15.1432 9.35 15.1427 9.35 15.1423C9.35 15.1418 9.35 15.1413 9.35 15.1409C9.35 15.1404 9.35 15.1399 9.35 15.1395C9.35 15.139 9.35 15.1385 9.35 15.1381C9.35 15.1376 9.35 15.1371 9.35 15.1367C9.35 15.1362 9.35 15.1358 9.35 15.1353C9.35 15.1348 9.35 15.1344 9.35 15.1339C9.35 15.1334 9.35 15.133 9.35 15.1325C9.35 15.1321 9.35 15.1316 9.35 15.1311C9.35 15.1307 9.35 15.1302 9.35 15.1297C9.35 15.1293 9.35 15.1288 9.35 15.1284C9.35 15.1279 9.35 15.1274 9.35 15.127C9.35 15.1265 9.35 15.1261 9.35 15.1256C9.35 15.1251 9.35 15.1247 9.35 15.1242C9.35 15.1238 9.35 15.1233 9.35 15.1228C9.35 15.1224 9.35 15.1219 9.35 15.1215C9.35 15.121 9.35 15.1205 9.35 15.1201C9.35 15.1196 9.35 15.1192 9.35 15.1187C9.35 15.1183 9.35 15.1178 9.35 15.1173C9.35 15.1169 9.35 15.1164 9.35 15.116C9.35 15.1155 9.35 15.1151 9.35 15.1146C9.35 15.1141 9.35 15.1137 9.35 15.1132C9.35 15.1128 9.35 15.1123 9.35 15.1119C9.35 15.1114 9.35 15.111 9.35 15.1105C9.35 15.11 9.35 15.1096 9.35 15.1091C9.35 15.1087 9.35 15.1082 9.35 15.1078C9.35 15.1073 9.35 15.1069 9.35 15.1064C9.35 15.106 9.35 15.1055 9.35 15.1051C9.35 15.1046 9.35 15.1041 9.35 15.1037C9.35 15.1032 9.35 15.1028 9.35 15.1023C9.35 15.1019 9.35 15.1014 9.35 15.101C9.35 15.1005 9.35 15.1001 9.35 15.0996C9.35 15.0992 9.35 15.0987 9.35 15.0983C9.35 15.0978 9.35 15.0974 9.35 15.0969C9.35 15.0965 9.35 15.096 9.35 15.0956C9.35 15.0951 9.35 15.0947 9.35 15.0942C9.35 15.0938 9.35 15.0933 9.35 15.0929C9.35 15.0924 9.35 15.092 9.35 15.0916C9.35 15.0911 9.35 15.0907 9.35 15.0902C9.35 15.0898 9.35 15.0893 9.35 15.0889C9.35 15.0884 9.35 15.088 9.35 15.0875C9.35 15.0871 9.35 15.0866 9.35 15.0862C9.35 15.0858 9.35 15.0853 9.35 15.0849C9.35 15.0844 9.35 15.084 9.35 15.0835C9.35 15.0831 9.35 15.0827 9.35 15.0822C9.35 15.0818 9.35 15.0813 9.35 15.0809C9.35 15.0804 9.35 15.08 9.35 15.0796C9.35 15.0791 9.35 15.0787 9.35 15.0782C9.35 15.0778 9.35 15.0774 9.35 15.0769C9.35 15.0765 9.35 15.076 9.35 15.0756C9.35 15.0752 9.35 15.0747 9.35 15.0743C9.35 15.0738 9.35 15.0734 9.35 15.073C9.35 15.0725 9.35 15.0721 9.35 15.0716C9.35 15.0712 9.35 15.0708 9.35 15.0703C9.35 15.0699 9.35 15.0695 9.35 15.069C9.35 15.0686 9.35 15.0682 9.35 15.0677C9.35 15.0673 9.35 15.0669 9.35 15.0664C9.35 15.066 9.35 15.0655 9.35 15.0651C9.35 15.0647 9.35 15.0642 9.35 15.0638C9.35 15.0634 9.35 15.063 9.35 15.0625C9.35 15.0621 9.35 15.0617 9.35 15.0612C9.35 15.0608 9.35 15.0604 9.35 15.0599C9.35 15.0595 9.35 15.0591 9.35 15.0586C9.35 15.0582 9.35 15.0578 9.35 15.0574C9.35 15.0569 9.35 15.0565 9.35 15.0561C9.35 15.0556 9.35 15.0552 9.35 15.0548C9.35 15.0544 9.35 15.0539 9.35 15.0535C9.35 15.0531 9.35 15.0526 9.35 15.0522C9.35 15.0518 9.35 15.0514 9.35 15.0509C9.35 15.0505 9.35 15.0501 9.35 15.0497C9.35 15.0492 9.35 15.0488 9.35 15.0484C9.35 15.048 9.35 15.0476 9.35 15.0471C9.35 15.0467 9.35 15.0463 9.35 15.0459C9.35 15.0454 9.35 15.045 9.35 15.0446C9.35 15.0442 9.35 15.0438 9.35 15.0433C9.35 15.0429 9.35 15.0425 9.35 15.0421C9.35 15.0417 9.35 15.0412 9.35 15.0408C9.35 15.0404 9.35 15.04 9.35 15.0396C9.35 15.0391 9.35 15.0387 9.35 15.0383C9.35 15.0379 9.35 15.0375 9.35 15.0371C9.35 15.0366 9.35 15.0362 9.35 15.0358C9.35 15.0354 9.35 15.035 9.35 15.0346C9.35 15.0342 9.35 15.0337 9.35 15.0333H8.15ZM8.15 15.575C8.15 16.3235 8.75988 16.9333 9.50833 16.9333V15.7333C9.42262 15.7333 9.35 15.6607 9.35 15.575H8.15ZM9.50833 16.9333H17.4167V15.7333H9.50833V16.9333ZM16.9924 16.7576L19.1591 18.9243L20.0076 18.0757L17.8409 15.9091L16.9924 16.7576ZM20.1833 18.5V9.50794H18.9833V18.5H20.1833ZM20.1833 9.50794C20.1833 8.75949 19.5735 8.14961 18.825 8.14961V9.34961C18.9107 9.34961 18.9833 9.42223 18.9833 9.50794H20.1833ZM15.85 12.325V6.25833H14.65V12.325H15.85ZM15.85 6.25833C15.85 5.50988 15.2401 4.9 14.4917 4.9V6.1C14.5774 6.1 14.65 6.17262 14.65 6.25833H15.85ZM14.4917 4.9H5.175V6.1H14.4917V4.9ZM5.175 4.9C4.42654 4.9 3.81666 5.50988 3.81666 6.25833H5.01666C5.01666 6.17262 5.08928 6.1 5.175 6.1V4.9ZM3.81666 6.25833V15.25H5.01666V6.25833H3.81666ZM4.84093 15.6743L7.00759 13.5076L6.15907 12.6591L3.9924 14.8257L4.84093 15.6743ZM6.58333 13.6833H14.4917V12.4833H6.58333V13.6833ZM14.4917 13.6833C15.2401 13.6833 15.85 13.0735 15.85 12.325H14.65C14.65 12.4107 14.5774 12.4833 14.4917 12.4833V13.6833Z" fill="#1D2327"/>
</svg>
