<svg width="24" height="24" viewBox="0 0 24 24" fill="none" xmlns="http://www.w3.org/2000/svg">
<path fill-rule="evenodd" clip-rule="evenodd" d="M15.5 7V8H8.5V7C8.5 5.067 10.067 3.5 12 3.5C13.933 3.5 15.5 5.067 15.5 7ZM7 8V7C7 4.23858 9.23858 2 12 2C14.7614 2 17 4.23858 17 7V8H18C19.1046 8 20 8.89543 20 10V20C20 21.1046 19.1046 22 18 22H6C4.89543 22 4 21.1046 4 20V10C4 8.89543 4.89543 8 6 8H7ZM6 20.5C5.72386 20.5 5.5 20.2761 5.5 20V10C5.5 9.72386 5.72386 9.5 6 9.5H18C18.2761 9.5 18.5 9.72386 18.5 10V20C18.5 20.2761 18.2761 20.5 18 20.5H6ZM14 15C14 16.1046 13.1046 17 12 17C10.8954 17 10 16.1046 10 15C10 13.8954 10.8954 13 12 13C13.1046 13 14 13.8954 14 15Z" fill="#1D2327"/>
</svg>
