<svg width="24" height="24" viewBox="0 0 24 24" fill="none" xmlns="http://www.w3.org/2000/svg">
<path fill-rule="evenodd" clip-rule="evenodd" d="M8 3.99999L13.25 0.535889V3.07842C14.7849 3.27179 16.26 3.81951 17.5557 4.6853C19.2002 5.78411 20.4819 7.3459 21.2388 9.17316C21.9957 11.0004 22.1937 13.0111 21.8079 14.9509C21.422 16.8907 20.4696 18.6725 19.0711 20.0711C17.6725 21.4696 15.8907 22.422 13.9509 22.8078C12.0111 23.1937 10.0004 22.9957 8.17317 22.2388C6.3459 21.4819 4.78412 20.2002 3.6853 18.5557C2.58649 16.9112 2 14.9778 2 13H3.5C3.5 14.6811 3.99852 16.3245 4.93251 17.7223C5.8665 19.1202 7.19402 20.2096 8.74719 20.853C10.3004 21.4963 12.0094 21.6646 13.6583 21.3367C15.3071 21.0087 16.8217 20.1991 18.0104 19.0104C19.1992 17.8217 20.0087 16.3071 20.3367 14.6583C20.6646 13.0094 20.4963 11.3004 19.853 9.74718C19.2096 8.19401 18.1202 6.8665 16.7223 5.9325C15.6738 5.23191 14.4871 4.77634 13.25 4.5924V7.46409L8 3.99999ZM15.6263 10.956H15.2743V10.156H16.0343V10.756C16.0343 11.276 15.8903 11.716 15.5063 12.06L15.1703 11.82C15.4743 11.54 15.5943 11.3 15.6263 10.956ZM16.5303 10.956V10.156H17.2903V10.756C17.2903 11.276 17.1463 11.716 16.7623 12.06L16.4263 11.82C16.7303 11.54 16.8503 11.3 16.8823 10.956H16.5303ZM12.4479 15.612C13.9199 15.612 14.5279 14.484 14.5279 12.692V12.564C14.5279 11.1 13.9519 10.18 12.4479 10.18C10.9519 10.18 10.3759 11.1 10.3759 12.564V12.692C10.3759 14.484 10.9839 15.612 12.4479 15.612ZM12.4479 14.972C11.3919 14.972 11.0399 14.02 11.0399 12.748V12.556C11.0399 11.572 11.2639 10.78 12.4479 10.78C13.6399 10.78 13.8559 11.572 13.8559 12.556V12.748C13.8559 14.02 13.5119 14.972 12.4479 14.972ZM9.28596 15.5L9.27796 10.3H8.62196L7.70996 11.14L8.07796 11.548L8.62196 11.028L8.62996 15.5H9.28596Z" fill="#1D2327"/>
</svg>
