<svg width="24" height="24" viewBox="0 0 24 24" fill="none" xmlns="http://www.w3.org/2000/svg">
<path fill-rule="evenodd" clip-rule="evenodd" d="M11.801 2.99524C13.5424 2.99524 14.9541 4.40695 14.9541 6.14838V8.13188C14.9541 8.53708 15.3124 8.84869 15.7137 8.7925L17.439 8.5509C19.9512 8.19914 21.9209 10.6693 21.0188 13.0401L19.5671 16.8555C19.0747 18.1494 17.8342 19.0047 16.4498 19.0047L5.6153 19.0047C4.51008 19.0047 3.61412 18.1087 3.61412 17.0035V11C3.61412 9.89474 4.51008 8.99878 5.6153 8.99878H9.20538L9.94571 7.51812C10.1447 7.12008 10.2054 6.66707 10.1181 6.2307L9.92797 5.27994C9.69158 4.09799 10.5956 2.99524 11.801 2.99524ZM13.62 6.14838C13.62 5.14376 12.8056 4.32936 11.801 4.32936C11.4375 4.32936 11.1649 4.66189 11.2362 5.0183L11.4263 5.96906C11.5718 6.69634 11.4707 7.45136 11.139 8.11475L10.2847 9.8233V17.6705H16.4498C17.2805 17.6705 18.0248 17.1574 18.3202 16.381L19.7719 12.5656C20.3132 11.1432 19.1313 9.66107 17.624 9.87213L15.8987 10.1137C14.6949 10.2823 13.62 9.34746 13.62 8.13188V6.14838ZM8.95059 10.3329H5.6153C5.24689 10.3329 4.94824 10.6315 4.94824 11V17.0035C4.94824 17.3719 5.24689 17.6705 5.6153 17.6705H8.95059V10.3329Z" fill="#1D2327"/>
</svg>
