<svg width="24" height="24" viewBox="0 0 24 24" fill="none" xmlns="http://www.w3.org/2000/svg">
<path fill-rule="evenodd" clip-rule="evenodd" d="M6.00061 1.24994C4.48167 1.24994 3.26086 2.49037 3.26061 3.99947L3.26061 3.99963V3.99994L3.25061 19.9995V19.9999C3.25061 21.5093 4.47151 22.7499 5.99061 22.7499H18.0006C19.5148 22.7499 20.7506 21.5142 20.7506 19.9999V7.99994V7.68928L20.5309 7.46961L14.5309 1.46961L14.3113 1.24994H14.0006H6.00061ZM4.76061 3.99994C4.76061 3.30925 5.31971 2.74994 6.00061 2.74994H13.6899L19.2506 8.3106V19.9999C19.2506 20.6857 18.6864 21.2499 18.0006 21.2499H5.99061C5.30979 21.2499 4.75074 20.6908 4.75061 20.0002V19.9999L4.76061 4.00041L4.76061 3.99994ZM16.0006 13.9999H8.00061V11.9999H16.0006V13.9999ZM8.00061 17.9999H16.0006V15.9999H8.00061V17.9999ZM13.0006 8.99994V3.49994L18.5006 8.99994H13.0006Z" fill="#1D2327"/>
</svg>
