<svg width="24" height="24" viewBox="0 0 24 24" fill="none" xmlns="http://www.w3.org/2000/svg">
<path fill-rule="evenodd" clip-rule="evenodd" d="M3.49111 2.5H20.5284L18.0764 5.00005L18.7766 5.71399L21.4968 2.94051C21.4991 2.96002 21.5003 2.97987 21.5003 3V20.4902L19.058 18L18.3578 18.714L21.0835 21.4931C21.0564 21.4976 21.0286 21.5 21.0003 21.5H3.00027C2.97167 21.5 2.94363 21.4976 2.91634 21.493L5.64188 18.714L4.94167 18L2.50027 20.4893V3C2.50027 2.974 2.50226 2.94846 2.50608 2.92354L5.24286 5.71399L5.94307 5.00005L3.49111 2.5ZM3.00027 1C1.89571 1 1.00027 1.89543 1.00027 3V21C1.00027 22.1046 1.8957 23 3.00027 23H21.0003C22.1048 23 23.0003 22.1046 23.0003 21V3C23.0003 1.89543 22.1048 1 21.0003 1H3.00027ZM9.00027 9H15.0003V15H9.00027V9ZM8.00027 9C8.00027 8.44772 8.44799 8 9.00027 8H15.0003C15.5526 8 16.0003 8.44772 16.0003 9V15C16.0003 15.5523 15.5526 16 15.0003 16H9.00027C8.44799 16 8.00027 15.5523 8.00027 15V9Z" fill="#1D2327"/>
</svg>
