<svg width="24" height="24" viewBox="0 0 24 24" fill="none" xmlns="http://www.w3.org/2000/svg">
<path fill-rule="evenodd" clip-rule="evenodd" d="M9.14821 5.85714C9.14821 5.69083 9.26882 5.0868 9.70741 4.53442C10.1122 4.02456 10.799 3.54286 12.0001 3.54286C13.2011 3.54286 13.8879 4.02456 14.2927 4.53442C14.7313 5.0868 14.8519 5.69083 14.8519 5.85714V7.42857H16.4075V5.85714C16.4075 5.33774 16.1651 4.39891 15.5148 3.57987C14.8307 2.71829 13.7027 2 12.0001 2C10.2974 2 9.16938 2.71829 8.4853 3.57987C7.835 4.39891 7.59265 5.33774 7.59265 5.85714V7.42857H9.14821V5.85714ZM19 8.14285H5V18.1714C5 19.1993 5.38096 19.9386 5.94418 20.4078C6.4771 20.8518 7.10785 21 7.55556 21H16.4444C17.4631 21 18.1413 20.4846 18.5285 19.8623C18.8902 19.281 19 18.6161 19 18.1714V8.14285ZM6.55556 18.1714V9.68571H17.4444V18.1714C17.4444 18.4125 17.3765 18.7761 17.2048 19.052C17.0587 19.2868 16.848 19.4571 16.4444 19.4571H7.55556C7.41067 19.4571 7.15253 19.3996 6.9447 19.2264C6.76719 19.0786 6.55556 18.7893 6.55556 18.1714Z" fill="#1D2327"/>
</svg>
