<svg width="24" height="24" viewBox="0 0 24 24" fill="none" xmlns="http://www.w3.org/2000/svg">
<path d="M16.5 12C16.5 10.3457 15.6089 8.9097 14.2841 8.12491C14.1562 8.04914 14 8.14494 14 8.29362V10.18L16.45 12.63C16.48 12.43 16.5 12.22 16.5 12ZM19 12C19 12.94 18.8 13.82 18.46 14.64L19.97 16.15C20.63 14.91 21 13.5 21 12C21 7.80715 18.1305 4.28611 14.2437 3.28891C14.1194 3.25702 14 3.35215 14 3.48047V5.14085C14 5.22933 14.0584 5.30707 14.1427 5.33412C16.9592 6.23872 19 8.88238 19 12ZM4.41142 3.14142C4.33331 3.06332 4.20668 3.06332 4.12858 3.14142L3.14142 4.12858C3.06332 4.20668 3.06332 4.33332 3.14142 4.41142L7.73001 9H4C3.44772 9 3 9.44772 3 10V14C3 14.5523 3.44772 15 4 15H7L11.6586 19.6586C11.7846 19.7846 12 19.6954 12 19.5172V13.27L16.25 17.52C15.6184 18.0102 14.9156 18.4027 14.1418 18.6555C14.058 18.6829 14 18.7604 14 18.8486V20.5101C14 20.6382 14.1189 20.7334 14.243 20.7017C15.5269 20.3737 16.6926 19.7592 17.69 18.95L19.5886 20.8579C19.6666 20.9363 19.7935 20.9365 19.8718 20.8582L20.8586 19.8714C20.9367 19.7933 20.9367 19.6667 20.8586 19.5886L12 10.73L4.41142 3.14142ZM12 4.48284C12 4.30466 11.7846 4.21543 11.6586 4.34142L9.90999 6.09L12 8.18001V4.48284Z" fill="#1D2327"/>
</svg>
