<svg width="24" height="24" viewBox="0 0 24 24" fill="none" xmlns="http://www.w3.org/2000/svg">
<path d="M9.15 15.3653C9.15 13.8392 9.825 12.3914 11.025 11.3349C12.1875 10.2783 13.7625 9.73052 15.4125 9.73052C16.2375 9.73052 17.0625 9.88704 17.8125 10.1609V9.84791C17.8125 6.20878 14.5125 3.23486 10.3875 3.23486C6.2625 3.23486 3 6.20878 3 9.84791C3 11.2175 3.45 12.4696 4.2375 13.487L3.9 17.0088L6.825 15.6001C7.575 15.9523 8.3625 16.2262 9.225 16.3436C9.1875 16.0305 9.15 15.7175 9.15 15.3653V15.3653ZM12.9375 5.8566C13.5375 5.8566 14.025 6.3653 14.025 6.99138C14.025 7.61747 13.5375 8.08704 12.9375 8.08704C12.3375 8.08704 11.85 7.57834 11.85 6.95225C11.85 6.32617 12.3375 5.8566 12.9375 5.8566ZM7.9125 8.08704C7.3125 8.08704 6.825 7.57834 6.825 6.95225C6.825 6.32617 7.3125 5.81747 7.9125 5.81747C8.5125 5.81747 9 6.32617 9 6.95225C9 7.57834 8.5125 8.08704 7.9125 8.08704Z" fill="#1D2327"/>
<path d="M21 15.3651C21 13.3695 19.65 11.6086 17.7375 10.826C17.025 10.5521 16.2375 10.3564 15.4125 10.3564C12.3 10.3564 9.78748 12.5869 9.78748 15.326C9.78748 15.6782 9.82498 16.0304 9.89998 16.3825C10.425 18.613 12.675 20.3347 15.375 20.3347C16.35 20.3347 17.25 20.0999 18.0375 19.7477L20.2125 20.726L19.9875 18.1434C20.625 17.3608 21 16.4217 21 15.3651V15.3651ZM13.5 14.0347C13.05 14.0347 12.675 13.6434 12.675 13.1738C12.675 12.7043 13.05 12.313 13.5 12.313C13.95 12.313 14.325 12.7043 14.325 13.1738C14.325 13.6434 13.95 14.0347 13.5 14.0347ZM17.2875 14.0347C16.8375 14.0347 16.4625 13.6434 16.4625 13.1738C16.4625 12.7043 16.8375 12.313 17.2875 12.313C17.7375 12.313 18.1125 12.7043 18.1125 13.1738C18.1125 13.6434 17.7375 14.0347 17.2875 14.0347Z" fill="#1D2327"/>
</svg>
