<svg fill="none" height="21" viewBox="0 0 20 21" width="20" xmlns="http://www.w3.org/2000/svg"><path clip-rule="evenodd" d="m10.5769 19.7453c-.1907.0123-.3831.0186-.5769.0186-.19384 0-.38622-.0063-.57695-.0186-.62696-.2515-1.33494-.9227-1.97471-2.2023-.36542-.7308-.67463-1.6025-.90438-2.5791h6.91204c-.2297.9766-.5389 1.8483-.9043 2.5791-.6398 1.2796-1.3478 1.9508-1.9748 2.2023zm3.1121-5.9814h-7.37801c-.13619-.8772-.21099-1.8174-.21099-2.8 0-.98263.07479-1.92284.21098-2.80003h7.37802c.1362.87719.211 1.8174.211 2.80003 0 .9826-.0748 1.9228-.211 2.8zm.8949 1.2c-.3907 1.7884-1.0353 3.3041-1.8428 4.3647 2.2197-.727 4.0504-2.3128 5.0993-4.3647zm3.7613-1.2h-3.5439c.1294-.8885.1987-1.8281.1987-2.8 0-.97199-.0693-1.91155-.1986-2.80003h3.5438c.295.87955.4548 1.82111.4548 2.80003 0 .9789-.1598 1.9204-.4548 2.8zm-13.14655 0c-.12931-.8885-.19865-1.8281-.19865-2.8 0-.97199.06933-1.91156.19865-2.80003h-3.54383c-.29499.87955-.45482 1.82111-.45482 2.80003 0 .9789.15984 1.9204.45483 2.8zm-3.03909 1.2c1.04893 2.0519 2.87967 3.6377 5.09935 4.3647-.80747-1.0606-1.45215-2.5763-1.84285-4.3647zm5.28878-10.57917c-.36543.73085-.67464 1.60249-.90439 2.57914h6.91205c-.2297-.97665-.5389-1.84829-.9043-2.57914-.6398-1.27955-1.3478-1.9508-1.9748-2.20225-.1907-.01235-.3831-.01861-.5769-.01861-.19384 0-.38622.00626-.57695.01861-.62696.25145-1.33494.9227-1.97471 2.20225zm7.13566 2.57914h3.2565c-1.049-2.05191-2.8797-3.63777-5.0994-4.36471.8075 1.06059 1.4522 2.57628 1.8429 4.36471zm-12.42446 0h3.2565c.3907-1.78843 1.03539-3.30412 1.84287-4.36471-2.2197.72694-4.05045 2.3128-5.09937 4.36471zm7.84046-6.000003c5.5228 0 10 4.477153 10 10.000033 0 5.5228-4.4772 10-10 10-5.52285 0-10-4.4772-10-10 0-5.52288 4.47715-10.000033 10-10.000033z" fill="#1d2327" fill-rule="evenodd"/></svg>