<svg width="24" height="24" viewBox="0 0 24 24" fill="none" xmlns="http://www.w3.org/2000/svg">
<path fill-rule="evenodd" clip-rule="evenodd" d="M12 22C17.5228 22 22 17.5228 22 12C22 6.47715 17.5228 2 12 2C6.47715 2 2 6.47715 2 12C2 17.5228 6.47715 22 12 22ZM19.5019 16C18.5278 17.8231 16.9086 19.2496 14.9491 19.9745C15.3433 19.0592 15.9211 17.6016 16.3631 16H19.5019ZM14.8726 16C14.3533 17.8936 13.6413 19.5728 13.2624 20.4069C12.8505 20.4682 12.429 20.5 12 20.5C11.571 20.5 11.1495 20.4682 10.7376 20.4069C10.3587 19.5728 9.64675 17.8936 9.12738 16H14.8726ZM7.62739 16C8.06811 17.6068 8.64751 19.0593 9.04442 19.9721C7.08788 19.2464 5.47113 17.8211 4.4981 16H7.62739ZM8.77241 14.5H15.2276C15.3948 13.6472 15.5 12.7846 15.5 11.9641C15.5 11.006 15.3566 9.99044 15.1384 9L8.86161 9C8.64344 9.99044 8.5 11.006 8.5 11.9641C8.5 12.7846 8.60518 13.6472 8.77241 14.5ZM7.36161 9C7.14344 9.99044 7 11.006 7 11.9641C7 12.7846 7.10519 13.6472 7.27241 14.5H3.8736C3.63072 13.7096 3.5 12.8701 3.5 12C3.5 10.944 3.69259 9.93288 4.04455 9L7.36161 9ZM9.24905 7.5L14.751 7.5C14.2632 5.83954 13.6534 4.38877 13.2972 3.59836C12.8743 3.53359 12.4411 3.5 12 3.5C11.5589 3.5 11.1257 3.53359 10.7028 3.59836C10.3466 4.38877 9.73685 5.83954 9.24905 7.5ZM9.00734 4.04179C8.64861 4.87349 8.15632 6.11366 7.74905 7.5L4.78755 7.5C5.76942 5.92962 7.24991 4.70298 9.00734 4.04179ZM20.1264 14.5H16.7216C16.8923 13.6421 17 12.7782 17 11.9641C17 11.0144 16.8534 9.99682 16.6312 9L19.9554 9C20.3074 9.93288 20.5 10.944 20.5 12C20.5 12.8701 20.3693 13.7096 20.1264 14.5ZM19.2124 7.5L16.2408 7.5C15.8329 6.11698 15.3421 4.87303 14.9857 4.03919C16.7462 4.69977 18.2293 5.92756 19.2124 7.5Z" fill="#1D2327"/>
</svg>
