<svg width="24" height="24" viewBox="0 0 24 24" fill="none" xmlns="http://www.w3.org/2000/svg"><path fill-rule="evenodd" clip-rule="evenodd" d="M12.5769 20.7453C12.3862 20.7576 12.1938 20.7639 12 20.7639C11.8062 20.7639 11.6138 20.7576 11.4231 20.7453C10.7961 20.4938 10.0881 19.8226 9.44834 18.543C9.08292 17.8122 8.77371 16.9405 8.54396 15.9639H15.456C15.2263 16.9405 14.9171 17.8122 14.5517 18.543C13.9119 19.8226 13.2039 20.4938 12.5769 20.7453ZM15.689 14.7639H8.31099C8.1748 13.8867 8.1 12.9465 8.1 11.9639C8.1 10.9813 8.17479 10.0411 8.31098 9.16387L15.689 9.16387C15.8252 10.0411 15.9 10.9813 15.9 11.9639C15.9 12.9465 15.8252 13.8867 15.689 14.7639ZM16.5839 15.9639C16.1932 17.7523 15.5486 19.268 14.7411 20.3286C16.9608 19.6016 18.7915 18.0158 19.8404 15.9639H16.5839ZM20.3452 14.7639H16.8013C16.9307 13.8754 17 12.9358 17 11.9639C17 10.9919 16.9307 10.0523 16.8014 9.16387L20.3452 9.16387C20.6402 10.0434 20.8 10.985 20.8 11.9639C20.8 12.9428 20.6402 13.8843 20.3452 14.7639ZM7.19865 14.7639C7.06934 13.8754 7 12.9358 7 11.9639C7 10.9919 7.06933 10.0523 7.19865 9.16387L3.65482 9.16387C3.35983 10.0434 3.2 10.985 3.2 11.9639C3.2 12.9428 3.35984 13.8843 3.65483 14.7639H7.19865ZM4.15956 15.9639C5.20849 18.0158 7.03923 19.6016 9.25891 20.3286C8.45144 19.268 7.80676 17.7523 7.41606 15.9639H4.15956ZM9.44834 5.38473C9.08291 6.11558 8.7737 6.98722 8.54395 7.96387L15.456 7.96387C15.2263 6.98722 14.9171 6.11558 14.5517 5.38473C13.9119 4.10518 13.2039 3.43393 12.5769 3.18248C12.3862 3.17013 12.1938 3.16387 12 3.16387C11.8062 3.16387 11.6138 3.17013 11.4231 3.18248C10.7961 3.43393 10.0881 4.10518 9.44834 5.38473ZM16.584 7.96387L19.8405 7.96387C18.7915 5.91196 16.9608 4.3261 14.7411 3.59916C15.5486 4.65975 16.1933 6.17544 16.584 7.96387ZM4.15954 7.96387L7.41604 7.96387C7.80674 6.17544 8.45143 4.65975 9.25891 3.59916C7.03921 4.3261 5.20846 5.91196 4.15954 7.96387ZM12 1.96387C17.5228 1.96387 22 6.44102 22 11.9639C22 17.4867 17.5228 21.9639 12 21.9639C6.47715 21.9639 2 17.4867 2 11.9639C2 6.44102 6.47715 1.96387 12 1.96387Z" fill="#1D2327"/></svg>
