<svg width="24" height="24" viewBox="0 0 24 24" fill="none" xmlns="http://www.w3.org/2000/svg">
<path fill-rule="evenodd" clip-rule="evenodd" d="M9.95455 14.8193V8.87175L15.1818 11.8456L9.95455 14.8193ZM21.582 7.00039C21.352 6.13425 20.6743 5.45221 19.8139 5.22073C18.2542 4.80005 12 4.80005 12 4.80005C12 4.80005 5.7458 4.80005 4.18614 5.22073C3.32568 5.45221 2.64795 6.13425 2.41795 7.00039C2 8.57016 2 11.8455 2 11.8455C2 11.8455 2 15.1207 2.41795 16.6906C2.64795 17.5568 3.32568 18.2388 4.18614 18.4704C5.7458 18.891 12 18.891 12 18.891C12 18.891 18.2542 18.891 19.8139 18.4704C20.6743 18.2388 21.352 17.5568 21.582 16.6906C22 15.1207 22 11.8455 22 11.8455C22 11.8455 22 8.57016 21.582 7.00039Z" fill="#1D2327"/>
</svg>
