<svg width="24" height="24" viewBox="0 0 24 24" fill="none" xmlns="http://www.w3.org/2000/svg">
<path d="M11 7.01048H10V10.015H7V11.0165H10V14.021H11V11.0165H14V10.015H11V7.01048Z" fill="#1D2327"/>
<path fill-rule="evenodd" clip-rule="evenodd" d="M17 10.5157C17 12.0427 16.475 13.4469 15.596 14.5571L20.5615 19.53L19.5008 20.5922L14.5354 15.6194C13.4268 16.4997 12.0247 17.0255 10.5 17.0255C6.91015 17.0255 4 14.1109 4 10.5157C4 6.92049 6.91015 4.00598 10.5 4.00598C14.0899 4.00598 17 6.92049 17 10.5157ZM10.5 15.5232C13.2614 15.5232 15.5 13.2813 15.5 10.5157C15.5 7.75016 13.2614 5.50823 10.5 5.50823C7.73858 5.50823 5.5 7.75016 5.5 10.5157C5.5 13.2813 7.73858 15.5232 10.5 15.5232Z" fill="#1D2327"/>
</svg>
